<?xml version="1.0" encoding="UTF-8" standalone="no"?>
<!-- Created with Inkscape (http://www.inkscape.org/) -->

<svg
   xmlns:dc="http://purl.org/dc/elements/1.1/"
   xmlns:cc="http://creativecommons.org/ns#"
   xmlns:rdf="http://www.w3.org/1999/02/22-rdf-syntax-ns#"
   xmlns:svg="http://www.w3.org/2000/svg"
   xmlns="http://www.w3.org/2000/svg"
   xmlns:xlink="http://www.w3.org/1999/xlink"
   xmlns:sodipodi="http://sodipodi.sourceforge.net/DTD/sodipodi-0.dtd"
   xmlns:inkscape="http://www.inkscape.org/namespaces/inkscape"
   version="1.1"
   id="svg8"
   width="233"
   height="128"
   viewBox="0 0 233 128"
   sodipodi:docname="fail@zz.svg"
   inkscape:version="0.92.1 r15371"
   inkscape:export-filename="fail@zz.png"
   inkscape:export-xdpi="96"
   inkscape:export-ydpi="96">
  <metadata
     id="metadata14">
    <rdf:RDF>
      <cc:Work
         rdf:about="">
        <dc:format>image/svg+xml</dc:format>
        <dc:type
           rdf:resource="http://purl.org/dc/dcmitype/StillImage" />
        <dc:title />
      </cc:Work>
    </rdf:RDF>
  </metadata>
  <defs
     id="defs12">
    <linearGradient
       inkscape:collect="always"
       id="linearGradient37">
      <stop
         style="stop-color:#a64a00;stop-opacity:1"
         offset="0"
         id="stop33" />
      <stop
         style="stop-color:#ffd500;stop-opacity:1"
         offset="1"
         id="stop35" />
    </linearGradient>
    <linearGradient
       inkscape:collect="always"
       xlink:href="#linearGradient37"
       id="linearGradient4581"
       gradientUnits="userSpaceOnUse"
       gradientTransform="translate(0,12.407339)"
       x1="73.566849"
       y1="40.119938"
       x2="73.566849"
       y2="63.667484" />
    <clipPath
       clipPathUnits="userSpaceOnUse"
       id="clipPath4656">
      <path
         inkscape:connector-curvature="0"
         id="path4658"
         d="m 58.511719,49.470703 c -0.330251,0 -0.806472,0.0141 -1.185547,0.519531 -0.347075,0.462767 -0.28711,0.752632 -0.28711,1.072266 v 23.068359 c 0,0.319635 -0.05996,0.609499 0.28711,1.072266 l 0.04297,0.05664 0.05078,0.05078 c 0.343932,0.343932 0.766423,0.410156 1.091797,0.410156 h 2.923828 c 0.311695,0 0.749988,-0.06207 1.117187,-0.488281 0.349519,-0.3996 0.384766,-0.777163 0.384766,-1.101563 V 51.0625 c 0,-0.3244 -0.03525,-0.701963 -0.384766,-1.101562 -0.367207,-0.426255 -0.805481,-0.490235 -1.117187,-0.490235 z m -7.246094,0.501953 c -0.904813,0 -1.785966,0.371445 -2.392578,1.033203 v 0.002 c -0.5741,0.628777 -0.882813,1.466175 -0.882813,2.328126 0,0.872047 0.329387,1.720158 0.927735,2.345703 0.605853,0.633392 1.465505,0.988281 2.347656,0.988281 0.895009,0 1.765868,-0.34942 2.376953,-0.988281 0.598348,-0.625545 0.925781,-1.473656 0.925781,-2.345703 0,-0.869043 -0.327446,-1.712979 -0.921875,-2.337891 -0.606311,-0.655921 -1.480305,-1.025391 -2.380859,-1.025391 z m -33.730469,1.035156 c -0.394732,10e-7 -0.878215,-0.02137 -1.3125,0.521485 -0.403811,0.504764 -0.335937,0.847692 -0.335937,1.246094 v 21.296875 c 0,0.384265 -0.110553,0.746869 0.410156,1.267578 l 0.03906,0.03906 0.04297,0.03516 c 0.403188,0.322553 0.779541,0.337891 1.126953,0.337891 H 20.3125 c 0.358762,0 0.823619,-0.07739 1.199219,-0.5 0.417826,-0.457878 0.390625,-0.826327 0.390625,-1.179687 v -8.097657 h 5.824218 c 0.343248,0 0.788591,0.06026 1.226563,-0.507812 0.291996,-0.373205 0.333984,-0.750344 0.333984,-1.083985 V 61.84375 c 0,-0.307913 -0.06679,-0.681125 -0.373047,-1.048828 -0.177236,-0.216687 -0.395214,-0.392155 -0.583984,-0.455078 -0.225633,-0.07521 -0.41592,-0.08789 -0.603516,-0.08789 h -5.824218 v -3.494141 h 6.207031 c 0.343249,0 0.790541,0.06223 1.228516,-0.505859 0.291996,-0.373205 0.333984,-0.750345 0.333984,-1.083984 v -2.570313 c 0,-0.320568 -0.04564,-0.709064 -0.390625,-1.091797 -0.353673,-0.397879 -0.819709,-0.498045 -1.171875,-0.498047 z m 20.554688,5.640626 c -1.161834,-10e-7 -2.208507,0.13671 -3.138672,0.43164 h -0.002 l -0.0039,0.002 c -0.825302,0.268223 -1.558672,0.55961 -2.205078,0.882813 -0.325743,0.162872 -0.652664,0.326813 -0.890625,0.802734 l -0.01953,0.03711 -0.01563,0.03906 c -0.150374,0.375934 -0.128906,0.595069 -0.128906,0.902344 v 2.451172 c 0,0.271917 0.0076,0.52755 0.154297,0.853515 0.146684,0.325965 0.652345,0.738282 1.111328,0.738281 0.688009,10e-7 0.966772,-0.264441 1.425781,-0.572265 0.225072,-0.144689 0.495349,-0.2896 0.810547,-0.429688 l 0.02148,-0.0098 0.01953,-0.0098 c 0.308073,-0.154037 0.623564,-0.282543 0.947265,-0.384766 l 0.01563,-0.0039 0.01367,-0.0059 c 0.335139,-0.117299 0.665358,-0.198514 0.992188,-0.248047 0.331238,-0.04732 0.645496,-0.05407 0.949218,-0.02539 0.396601,0.053 0.580306,0.16375 0.75,0.38086 0.03667,0.04692 0.04733,0.207344 0.08203,0.271484 -0.889038,0.01535 -1.802547,-0.007 -2.601563,0.146485 -1.210452,0.212805 -2.294874,0.578533 -3.236328,1.115234 l -0.002,0.002 c -0.95714,0.537503 -1.744696,1.315542 -2.31836,2.279297 -0.585069,0.982917 -0.878906,2.102882 -0.878906,3.287109 0,0.972497 0.156978,1.881703 0.486328,2.705078 l 0.002,0.0039 0.002,0.0059 c 0.320743,0.778948 0.769032,1.468252 1.339843,2.039063 0.617924,0.617923 1.399718,1.05562 2.283204,1.3125 0.841627,0.263862 1.718265,0.398437 2.617187,0.398437 0.914327,0 1.822446,-0.234768 2.689453,-0.667969 h 0.002 c 0.158432,-0.07746 0.222053,-0.224487 0.369141,-0.310547 0.03184,0.118252 0.0059,0.205162 0.191406,0.390625 l 0.06836,0.06836 0.08398,0.05664 c 0.443098,0.295399 0.656903,0.226563 0.908203,0.226563 h 2.716797 c 0.263584,0 0.484419,0.02244 0.861328,-0.166016 0.332741,-0.16637 0.471038,-0.430947 0.535156,-0.597656 0.06412,-0.166709 0.07777,-0.285191 0.08789,-0.396484 0.01999,-0.219908 0.007,-0.412896 -0.01563,-0.640625 v -0.0078 c -0.01852,-0.204463 -0.03754,-0.447915 -0.05664,-0.734375 -0.0013,-0.260804 -0.01051,-0.534339 -0.02734,-0.820312 v -0.0039 -0.912109 -0.855469 -6.736328 c 0,-2.300512 -0.544296,-4.177877 -1.791016,-5.451172 -1.220012,-1.265331 -3.029484,-1.839846 -5.205078,-1.839843 z m 66.773436,0 c -1.36219,0 -2.60612,0.30329 -3.66406,0.935546 -1.00389,0.580934 -1.861443,1.361639 -2.548829,2.314454 l -0.002,0.002 c -0.683622,0.92867 -1.181752,1.981724 -1.486329,3.134765 -0.296705,1.12324 -0.445312,2.255007 -0.445312,3.386719 0,2.958199 0.730347,5.390971 2.292969,7.134766 l 0.002,0.0039 0.002,0.002 c 1.569751,1.726719 3.776621,2.601562 6.353521,2.601562 0.92362,0 1.85462,-0.108084 2.78906,-0.320312 h 0.002 c 0.97676,-0.21771 1.8269,-0.551348 2.53125,-1.037109 l 0.0234,-0.01563 0.0234,-0.01953 c 0.19382,-0.150748 0.35575,-0.29116 0.52929,-0.582031 0.25957,-0.387525 0.26954,-0.687291 0.26954,-0.974609 V 71 c 0,-0.216399 -0.0117,-0.416995 -0.0645,-0.638672 -0.0528,-0.221677 -0.13994,-0.506485 -0.45898,-0.761719 -0.36983,-0.295864 -0.82957,-0.277992 -1.0918,-0.208984 -0.26223,0.06901 -0.4458,0.173447 -0.63476,0.294922 -0.55752,0.347167 -1.13542,0.613261 -1.73828,0.802734 l -0.004,0.002 -0.004,0.002 c -0.52696,0.170488 -1.19606,0.25226 -2.01172,0.216796 h -0.002 c -0.75474,-0.03081 -1.33255,-0.266559 -1.87891,-0.75 -0.2351,-0.216266 -0.3152,-0.786616 -0.4746,-1.179687 h 7.80664 c 0.3998,0 0.95917,-0.122926 1.29492,-0.615235 0.22747,-0.327235 0.32231,-0.688064 0.35156,-1.039062 l 0.004,-0.04102 v -0.04297 -0.97461 c 0,-1.20973 -0.12578,-2.357882 -0.38086,-3.443359 -0.26162,-1.133668 -0.7078,-2.156598 -1.33985,-3.039063 -0.62163,-0.895494 -1.45022,-1.616881 -2.4414,-2.136718 h -0.002 c -1.02551,-0.548115 -2.23999,-0.798829 -3.60156,-0.798828 z M 93.117188,56.875 c -0.242921,0.01121 -0.487172,0.04004 -0.730469,0.08594 -0.505497,0.09191 -0.943515,0.39235 -1.367188,0.703124 -0.03266,-0.0454 -0.01057,-0.09578 -0.05078,-0.138671 -0.30135,-0.321441 -0.737034,-0.433594 -1.0625,-0.433594 h -2.835938 c -0.337821,0 -0.747533,0.0073 -1.15039,0.410156 -0.461783,0.461783 -0.410156,0.852381 -0.410156,1.210938 0,0.467402 0.0094,1.044772 0.0293,1.740234 0.01944,0.680514 0.0293,1.331453 0.0293,1.951172 v 11.697265 c 0,0.347113 -0.106012,0.604093 0.289063,1.13086 0.411075,0.5481 0.87507,0.519531 1.21289,0.519531 h 2.835938 c 0.333506,0 0.8137,-0.106961 1.154297,-0.535156 0.334178,-0.393036 0.376953,-0.76619 0.376953,-1.085938 v -7.621093 c 0,-0.444824 0.01906,-0.911866 0.05664,-1.400391 0.03377,-0.438956 0.110135,-0.854143 0.224609,-1.251953 0.122476,-0.361563 0.281344,-0.658408 0.472656,-0.908203 0.172643,-0.204354 0.375345,-0.348422 0.689453,-0.453125 0.06238,-0.02079 0.183601,-0.04102 0.386719,-0.01563 l 0.03125,0.0039 0.03125,0.002 c 0.173968,0.01087 0.411679,0.06509 0.707031,0.189453 l -0.05859,-0.02734 c 0.181938,0.09097 0.390249,0.179687 0.697265,0.179687 0.307017,0 0.726217,-0.177791 0.94336,-0.449219 0.302235,-0.377794 0.33789,-0.759835 0.33789,-1.097656 v -2.568359 c 0,-0.193321 -0.05378,-0.431864 -0.18164,-0.707032 -0.113006,-0.272126 -0.265444,-0.505323 -0.429688,-0.636718 l -0.01758,-0.01367 -0.01953,-0.01367 c -0.440073,-0.320053 -0.9419,-0.422259 -1.466797,-0.449219 -0.240099,-0.02238 -0.48169,-0.02879 -0.724609,-0.01758 z m -25.292969,0.246094 c -0.368125,0 -0.866507,0.07581 -1.22461,0.523437 -0.302235,0.377794 -0.335937,0.759835 -0.335937,1.097657 v 9.80664 c 0,2.259664 0.523059,4.143885 1.683594,5.517578 1.17699,1.393172 2.978399,2.06836 5.105468,2.06836 0.419235,0 0.843412,-0.06468 1.271485,-0.183594 0.408747,-0.113541 0.806236,-0.262102 1.191406,-0.44336 0.178474,-0.08399 0.325689,-0.215212 0.492187,-0.318359 0.05167,0.08536 0.0016,0.152029 0.08789,0.238281 l 0.05078,0.05078 0.05664,0.04297 c 0.430767,0.323076 0.735451,0.289063 1.042969,0.289063 h 2.658203 c 0.185461,0 0.356435,-0.0076 0.568359,-0.06055 0.194312,-0.04858 0.504828,-0.193889 0.732422,-0.560547 0.263382,-0.413082 0.261719,-0.69833 0.261719,-1 0,-0.505051 -0.01135,-1.075507 -0.03125,-1.712891 v -0.002 c -0.01937,-0.639909 -0.02734,-1.251055 -0.02734,-1.830078 v -11.84375 c 0,-0.302419 -0.08594,-0.617423 -0.232422,-0.90039 -0.131662,-0.272539 -0.373138,-0.518012 -0.61914,-0.632813 -0.25905,-0.12089 -0.495565,-0.146484 -0.710938,-0.146484 H 77.09961 c -0.368124,0 -0.866507,0.07581 -1.224609,0.523437 -0.302235,0.377794 -0.337891,0.759835 -0.337891,1.097657 v 8.595703 c 0,1.295944 -0.282415,2.094498 -0.664062,2.52539 v 0.002 c -0.430281,0.487652 -0.828639,0.666016 -1.4375,0.666016 -0.241632,0 -0.43505,-0.03563 -0.607422,-0.08789 -0.09612,-0.04559 -0.179627,-0.105903 -0.269531,-0.21875 -0.101848,-0.14614 -0.211704,-0.380249 -0.302735,-0.701171 -0.07406,-0.34944 -0.123046,-0.844996 -0.123047,-1.476563 v -9.275391 c 0,-0.310075 -0.0877,-0.651112 -0.273437,-0.951172 -0.298317,-0.49244 -0.895045,-0.699218 -1.318359,-0.699218 z m -18.066407,0.05859 c -0.330249,0 -0.804518,0.0141 -1.183593,0.519531 -0.347075,0.462767 -0.289063,0.752631 -0.289063,1.072265 v 15.388672 c 0,0.319634 -0.05801,0.609499 0.289063,1.072266 l 0.04297,0.05664 0.05078,0.05078 c 0.343932,0.343932 0.764471,0.412109 1.089843,0.412109 h 2.925782 c 0.311706,0 0.74998,-0.06398 1.117187,-0.490234 0.349519,-0.3996 0.384766,-0.777163 0.384766,-1.101563 V 58.771484 c 0,-0.324399 -0.03525,-0.701962 -0.384766,-1.101562 -0.367207,-0.426255 -0.805481,-0.490234 -1.117187,-0.490234 z m 0,1 c -0.196917,0 -0.323737,0.04037 -0.382812,0.11914 0.05907,-0.07877 0.185896,-0.119141 0.382812,-0.11914 z m 2.925782,0 c 0.196917,0 0.323737,0.04037 0.382812,0.11914 -0.05907,-0.07877 -0.185895,-0.11914 -0.382812,-0.11914 z m 23.972656,0.08984 c -0.07877,0.09846 -0.119141,0.256047 -0.119141,0.472657 0,-0.21661 0.04037,-0.374198 0.119141,-0.472657 z m 3.632812,0.05859 c 0.07877,0.137842 0.119141,0.295431 0.119141,0.472656 0,-0.177225 -0.04037,-0.334814 -0.119141,-0.472656 z m -42.61914,2.753906 c 0.20184,-0.0049 0.400739,0.0037 0.597656,0.02344 -0.393835,-0.03938 -0.797411,-0.02978 -1.210937,0.0293 0.206763,-0.02954 0.411441,-0.04781 0.613281,-0.05273 z m 1.410156,0.271485 c 0.118566,0.06361 0.226911,0.139004 0.328125,0.224609 -0.100876,-0.08515 -0.210009,-0.161293 -0.328125,-0.224609 z m 65.873042,0.720703 c 0.31983,0 0.53302,0.0662 0.71876,0.179687 0.23618,0.144349 0.40416,0.307143 0.53906,0.515625 l 0.0176,0.0293 0.0215,0.02734 c 0.14503,0.193371 0.2536,0.43145 0.33984,0.705078 h -3.42968 c 0.14381,-0.279249 0.2944,-0.537031 0.46093,-0.744141 0.20059,-0.226449 0.41812,-0.405244 0.66602,-0.542968 0.21013,-0.116741 0.41122,-0.169922 0.66601,-0.169922 z m -6.824214,1.216797 c -0.126662,0.479506 -0.218641,0.957993 -0.287109,1.4375 0.06813,-0.478828 0.160619,-0.958644 0.287109,-1.4375 z m -58.849609,0.351562 c -0.649827,-0.0025 -1.270576,0.03213 -1.861328,0.103516 0.590558,-0.07143 1.211695,-0.105927 1.861328,-0.103516 z m 1.291015,3.015625 c -0.0098,0.866437 -0.09824,1.614005 -0.265624,2.244141 -0.16738,0.630135 -0.413368,1.143274 -0.738282,1.537109 0.324914,-0.393834 0.570995,-0.906864 0.738282,-1.537109 0.167286,-0.630245 0.255779,-1.377704 0.265624,-2.244141 z m 0,0 c -1.122429,0.01969 -2.046796,0.108091 -2.77539,0.265625 0.728594,-0.157534 1.652961,-0.245933 2.77539,-0.265625 z m 71.058598,0.382813 c -0.0197,0.2363 -0.0793,0.424657 -0.17774,0.5625 0.0985,-0.137843 0.15804,-0.3262 0.17774,-0.5625 z m -80.271488,0.402343 c -0.18461,0.438142 -0.307604,0.901302 -0.369141,1.388672 0.06151,-0.487522 0.18456,-0.950379 0.369141,-1.388672 z m 8.080078,0.322266 c -0.127851,0.926428 -0.337993,1.667915 -0.642578,2.037109 l -0.002,0.002 c -0.455169,0.554737 -0.943012,0.785156 -1.765625,0.785156 -0.494178,0 -0.731084,-0.108373 -0.884766,-0.242188 -0.153119,-0.148592 -0.242187,-0.313211 -0.242187,-0.736328 0,-0.312006 0.05427,-0.559111 0.15039,-0.77539 0.05496,-0.123656 0.178024,-0.277764 0.47461,-0.455079 0.320038,-0.17924 0.805637,-0.351742 1.455078,-0.474609 l 0.01367,-0.002 0.01172,-0.0039 c 0.35117,-0.07593 0.939596,-0.09249 1.431641,-0.134766 z m -3.960938,0.169922 c -0.147347,0.152698 -0.261076,0.316915 -0.339843,0.494141 0.07877,-0.177226 0.192155,-0.34153 0.339843,-0.494141 z M 102.14648,69.5 c 0.20717,0.48776 0.48352,0.890011 0.82813,1.205078 C 102.63,70.39001 102.35325,69.987371 102.14648,69.5 Z m -66.685542,1.587891 c 0.187071,0.167379 0.410731,0.293309 0.671874,0.376953 -0.260915,-0.08369 -0.484803,-0.209574 -0.671874,-0.376953 z m 2.998046,0.214843 c -0.423372,0.191995 -0.899963,0.28711 -1.43164,0.28711 0.531677,0 1.008561,-0.09551 1.43164,-0.28711 z m 60.404297,0.330078 c 0.254762,0.459064 0.550943,0.878747 0.890625,1.257813 -0.339682,-0.379066 -0.635955,-0.798748 -0.890625,-1.257813 z m -67.507812,0.283204 c 0.133707,0.324718 0.290675,0.623945 0.470703,0.902343 -0.179853,-0.277995 -0.337187,-0.57809 -0.470703,-0.902343 z m -14.351563,2.716796 c 0.09846,0.07877 0.265653,0.119141 0.501953,0.119141 -0.2363,0 -0.403494,-0.04037 -0.501953,-0.119141 z m 32.371094,0 c 0.07877,0.07877 0.205587,0.119141 0.382812,0.119141 -0.177224,0 -0.304045,-0.04037 -0.382812,-0.119141 z m 3.691406,0 c -0.05907,0.07877 -0.185895,0.119141 -0.382812,0.119141 0.196917,0 0.323737,-0.04037 0.382812,-0.119141 z m 33.589844,0 c 0.05908,0.07877 0.197453,0.119141 0.414062,0.119141 -0.216609,0 -0.354987,-0.04037 -0.414062,-0.119141 z m -10,0.138672 -0.05859,0.04687 c 0.0091,-0.0067 0.01439,-0.01669 0.02344,-0.02344 0.01078,-0.0091 0.02445,-0.01426 0.03516,-0.02344 z"
         style="color:#000000;font-style:normal;font-variant:normal;font-weight:normal;font-stretch:normal;font-size:29.53760719px;line-height:18.46100426px;font-family:sans-serif;font-variant-ligatures:normal;font-variant-position:normal;font-variant-caps:normal;font-variant-numeric:normal;font-variant-alternates:normal;font-feature-settings:normal;text-indent:0;text-align:start;text-decoration:none;text-decoration-line:none;text-decoration-style:solid;text-decoration-color:#000000;letter-spacing:1.50999999px;word-spacing:0px;text-transform:none;writing-mode:lr-tb;direction:ltr;text-orientation:mixed;dominant-baseline:auto;baseline-shift:baseline;text-anchor:start;white-space:normal;shape-padding:0;clip-rule:nonzero;display:inline;overflow:visible;visibility:visible;opacity:1;isolation:auto;mix-blend-mode:normal;color-interpolation:sRGB;color-interpolation-filters:linearRGB;solid-color:#000000;solid-opacity:1;vector-effect:none;fill:#140900;fill-opacity:1;fill-rule:nonzero;stroke:none;stroke-width:2;stroke-linecap:butt;stroke-linejoin:miter;stroke-miterlimit:4;stroke-dasharray:none;stroke-dashoffset:0;stroke-opacity:1;paint-order:stroke markers fill;color-rendering:auto;image-rendering:auto;shape-rendering:auto;text-rendering:auto;enable-background:accumulate" />
    </clipPath>
  </defs>
  <sodipodi:namedview
     pagecolor="#ffffff"
     bordercolor="#666666"
     borderopacity="1"
     objecttolerance="10"
     gridtolerance="10"
     guidetolerance="10"
     inkscape:pageopacity="0"
     inkscape:pageshadow="2"
     inkscape:window-width="2560"
     inkscape:window-height="1377"
     id="namedview10"
     showgrid="false"
     inkscape:zoom="9.1888412"
     inkscape:cx="83.92459"
     inkscape:cy="68.339229"
     inkscape:window-x="-8"
     inkscape:window-y="-8"
     inkscape:window-maximized="1"
     inkscape:current-layer="svg8"
     inkscape:snap-global="false" />
  <image
     sodipodi:absref="D:\Projects\Git\Syroot.KartRider.Translator\res\patch_templates\DataRaw\stage\common\mission\fail@zz.back.png"
     xlink:href="fail@zz.back.png"
     y="0"
     x="0"
     id="image4544"
     style="image-rendering:optimizeSpeed"
     preserveAspectRatio="none"
     height="128"
     width="233" />
  <g
     id="g5214">
    <text
       transform="matrix(1.1096666,0,0,1.1096666,-7.0463756,-8.3581468)"
       clip-path="url(#clipPath4656)"
       xml:space="preserve"
       style="font-style:normal;font-weight:normal;font-size:29.53760719px;line-height:18.46100426px;font-family:sans-serif;letter-spacing:1.50999999px;word-spacing:0px;fill:url(#linearGradient4581);fill-opacity:1;stroke:#fff000;stroke-width:2;stroke-miterlimit:4;stroke-dasharray:none;stroke-opacity:1;paint-order:stroke markers fill"
       x="14.581826"
       y="73.977509"
       id="text4571"><tspan
         sodipodi:role="line"
         id="tspan4569"
         x="14.581826"
         y="73.977509"
         style="font-style:normal;font-variant:normal;font-weight:bold;font-stretch:normal;font-family:NanumGothic;-inkscape-font-specification:'NanumGothic Bold';letter-spacing:1.50999999px;fill:url(#linearGradient4581);fill-opacity:1;stroke:#fff000;stroke-width:2;stroke-miterlimit:4;stroke-dasharray:none;stroke-opacity:1;paint-order:stroke markers fill">Failure</tspan></text>
    <path
       id="text31"
       d="m 57.882125,46.53784 c -0.366469,0 -0.894915,0.01565 -1.315562,0.576506 -0.385138,0.513517 -0.318597,0.835171 -0.318597,1.189858 v 25.598187 c 0,0.354689 -0.06653,0.676341 0.318597,1.189858 l 0.04768,0.06285 0.05635,0.05635 c 0.38165,0.381649 0.850474,0.455136 1.211531,0.455136 h 3.244474 c 0.345877,0 0.832237,-0.06888 1.239705,-0.541829 0.38785,-0.443423 0.426962,-0.862392 0.426962,-1.222368 V 48.304204 c 0,-0.359976 -0.03912,-0.778945 -0.426962,-1.222367 -0.407477,-0.473001 -0.893815,-0.543997 -1.239705,-0.543997 z m -8.040749,0.557 c -1.004041,0 -1.981827,0.412181 -2.654964,1.146511 v 0.0022 c -0.637059,0.697733 -0.979628,1.626966 -0.979628,2.583443 0,0.967683 0.36551,1.908802 1.029477,2.602949 0.672295,0.702854 1.626222,1.096662 2.605115,1.096662 0.993162,0 1.959525,-0.38774 2.637626,-1.096662 0.663966,-0.694147 1.027308,-1.635266 1.027308,-2.602949 0,-0.964347 -0.363356,-1.900835 -1.022974,-2.594279 -0.672803,-0.727854 -1.642645,-1.137842 -2.64196,-1.137842 z m 8.040749,0.552667 h 3.244474 c 0.218512,0 0.35924,0.0448 0.424794,0.132206 0.08741,0.08741 0.132206,0.262276 0.132206,0.524491 v 25.598187 c 0,0.262216 -0.0448,0.437087 -0.132206,0.524492 -0.06555,0.08741 -0.206282,0.130039 -0.424794,0.130039 h -3.244474 c -0.196662,0 -0.339557,-0.04263 -0.426962,-0.130039 -0.06555,-0.08741 -0.09753,-0.262276 -0.09753,-0.524492 V 48.304204 c 0,-0.262215 0.03198,-0.437086 0.09753,-0.524491 0.06555,-0.08741 0.208448,-0.132206 0.426962,-0.132206 z m -8.040749,0.557 c 0.742943,0 1.354991,0.262306 1.835718,0.786737 0.480728,0.502579 0.719549,1.114626 0.719549,1.835718 0,0.721091 -0.238821,1.333138 -0.719549,1.835717 -0.480727,0.502579 -1.092775,0.754227 -1.835718,0.754227 -0.721091,0 -1.32248,-0.251648 -1.803208,-0.754227 -0.480728,-0.502579 -0.721717,-1.114626 -0.721717,-1.835717 0,-0.721092 0.230331,-1.333139 0.689207,-1.835718 0.480728,-0.524431 1.092775,-0.786737 1.835718,-0.786737 z m -37.429575,0.03902 c -0.438021,10e-7 -0.974526,-0.02371 -1.456437,0.578674 -0.448096,0.56012 -0.372778,0.940656 -0.372778,1.382749 v 23.632431 c 0,0.426406 -0.122677,0.828776 0.455136,1.406589 l 0.04334,0.04334 0.04768,0.03902 c 0.447404,0.357925 0.865031,0.374946 1.250542,0.374946 h 3.114437 c 0.398106,0 0.913943,-0.08588 1.330733,-0.554833 0.463648,-0.508092 0.433464,-0.916948 0.433464,-1.30906 V 64.85168 h 6.46294 c 0.380891,0 0.875073,0.06687 1.361076,-0.563502 0.324018,-0.414133 0.370611,-0.832633 0.370611,-1.202862 v -2.817519 c 0,-0.341681 -0.07411,-0.755822 -0.413958,-1.163849 -0.196673,-0.240451 -0.438556,-0.435162 -0.648027,-0.504985 -0.250378,-0.08346 -0.461533,-0.09753 -0.669702,-0.09753 h -6.46294 v -3.877331 h 6.887735 c 0.380892,0 0.877237,0.06905 1.363243,-0.561335 0.324018,-0.414133 0.370611,-0.832633 0.370611,-1.202861 v -2.852191 c 0,-0.355723 -0.05064,-0.786824 -0.433463,-1.21153 -0.39246,-0.441513 -0.909604,-0.552665 -1.300391,-0.552666 z m 0,1.109667 h 11.733858 c 0.240364,10e-7 0.404576,0.0533 0.491981,0.162549 0.08741,0.08741 0.132206,0.251617 0.132206,0.491981 v 2.85219 c 0,0.240364 -0.0448,0.415234 -0.132206,0.524491 -0.06555,0.08741 -0.229766,0.130038 -0.491981,0.130038 h -7.997402 v 6.096665 h 7.572607 c 0.262216,0 0.426428,0.05546 0.491982,0.164717 0.08741,0.08741 0.130038,0.251617 0.130038,0.49198 v 2.817513 c 0,0.240365 -0.04263,0.415235 -0.130038,0.524491 -0.06555,0.08741 -0.229766,0.132206 -0.491982,0.132206 h -7.572607 v 10.095366 c 0,0.305918 -0.04263,0.502105 -0.130039,0.589511 -0.08741,0.109257 -0.262275,0.164715 -0.524491,0.164715 h -3.114436 c -0.262214,0 -0.447743,-0.0448 -0.557,-0.132207 -0.08741,-0.08741 -0.130039,-0.29425 -0.130039,-0.622019 V 50.204942 c 0,-0.349621 0.04263,-0.579951 0.130039,-0.689207 0.08741,-0.109258 0.283593,-0.16255 0.58951,-0.16255 z m 22.808851,5.149547 c -1.289248,-10e-7 -2.450706,0.151703 -3.482879,0.478977 h -0.0022 l -0.0043,0.0022 c -0.91581,0.297638 -1.729607,0.620981 -2.446902,0.979628 -0.361466,0.180734 -0.724239,0.362654 -0.988297,0.890767 l -0.02167,0.04118 -0.01735,0.04334 c -0.166865,0.417161 -0.143042,0.660328 -0.143042,1.001301 v 2.719983 c 0,0.301737 0.0084,0.585405 0.171218,0.947117 0.16277,0.361713 0.723885,0.819247 1.233204,0.819246 0.76346,1e-6 1.072794,-0.293441 1.582141,-0.635023 0.249755,-0.160557 0.549672,-0.32136 0.899437,-0.476811 l 0.02384,-0.01087 0.02167,-0.01087 c 0.341859,-0.17093 0.691949,-0.313529 1.051149,-0.426962 l 0.01734,-0.0043 0.01517,-0.0065 c 0.371893,-0.130163 0.738326,-0.220284 1.100998,-0.275249 0.367564,-0.05251 0.716285,-0.06 1.053315,-0.02818 0.440095,0.05881 0.643947,0.181708 0.83225,0.422628 0.04069,0.05206 0.05252,0.230083 0.09103,0.301257 -0.986535,0.01703 -2.000226,-0.0078 -2.886867,0.162549 -1.343198,0.236143 -2.546545,0.641979 -3.591245,1.237538 0,0 -0.0022,0.0022 -0.0022,0.0022 -1.062106,0.596449 -1.936031,1.459813 -2.572606,2.52926 -0.649232,1.09071 -0.975293,2.333498 -0.975293,3.647595 0,1.079148 0.174193,2.088063 0.539662,3.001735 l 0.0022,0.0043 0.0022,0.0065 c 0.355917,0.864372 0.853369,1.62927 1.486779,2.26268 0.685689,0.685688 1.553221,1.171386 2.533595,1.456437 0.933925,0.292799 1.906701,0.442132 2.904205,0.442132 1.014598,0 2.022307,-0.260514 2.984396,-0.741223 h 0.0022 c 0.175807,-0.08595 0.246405,-0.249105 0.409624,-0.344603 0.03533,0.13122 0.0065,0.227661 0.212397,0.433463 l 0.07586,0.07586 0.09319,0.06285 c 0.491691,0.327794 0.728944,0.251409 1.007803,0.251409 H 41.4474 c 0.29249,0 0.537543,0.0249 0.955787,-0.184222 0.369231,-0.184616 0.522695,-0.478208 0.593844,-0.663199 0.07115,-0.184992 0.0863,-0.316467 0.09753,-0.439965 0.02218,-0.244025 0.0078,-0.458177 -0.01734,-0.71088 v -0.0087 c -0.02055,-0.226886 -0.04166,-0.497036 -0.06285,-0.814911 -0.0014,-0.289406 -0.01166,-0.592938 -0.03034,-0.910273 v -0.0043 -1.012137 -0.949285 -7.475078 c 0,-2.552802 -0.603987,-4.636051 -1.987431,-6.048984 -1.353806,-1.404095 -3.361717,-2.041614 -5.775901,-2.041612 z m 74.096248,0 c -1.51157,0 -2.89192,0.336551 -4.06588,1.038144 -1.11398,0.644643 -2.06558,1.510966 -2.82835,2.568273 0,0 -0.002,0.0022 -0.002,0.0022 -0.75859,1.030514 -1.31135,2.199053 -1.64933,3.478544 -0.32924,1.246422 -0.49415,2.502306 -0.49415,3.758129 0,3.282615 0.81044,5.98218 2.54443,7.917212 l 0.002,0.0043 0.002,0.0022 c 1.7419,1.916082 4.19079,2.886866 7.05029,2.886866 1.02491,0 2.05801,-0.119937 3.09493,-0.35544 h 0.002 c 1.08388,-0.241585 2.02725,-0.611812 2.80884,-1.150845 l 0.026,-0.01734 0.026,-0.02167 c 0.21508,-0.16728 0.39476,-0.32309 0.58734,-0.64586 0.28802,-0.430024 0.2991,-0.762664 0.2991,-1.081491 v -2.457837 c 0,-0.240131 -0.013,-0.462726 -0.0716,-0.708713 -0.0586,-0.245988 -0.15528,-0.56203 -0.50931,-0.845254 -0.41039,-0.328311 -0.92055,-0.308479 -1.21153,-0.231903 -0.29099,0.07658 -0.49469,0.192468 -0.70438,0.327265 -0.61866,0.38524 -1.25992,0.680515 -1.92891,0.890767 l -0.004,0.0022 -0.004,0.0022 c -0.58475,0.189185 -1.32723,0.279924 -2.23234,0.240571 h -0.002 c -0.83751,-0.03419 -1.47869,-0.295791 -2.08497,-0.83225 -0.26088,-0.239983 -0.34976,-0.872881 -0.52664,-1.309059 h 8.66276 c 0.44365,0 1.06436,-0.136408 1.43693,-0.682706 0.25242,-0.363121 0.35766,-0.763521 0.39012,-1.153012 l 0.004,-0.04552 v -0.04768 -1.081492 c 0,-1.342397 -0.13958,-2.616463 -0.42263,-3.820981 -0.29031,-1.257993 -0.78542,-2.393104 -1.48679,-3.372346 -0.6898,-0.9937 -1.60926,-1.794199 -2.70914,-2.371045 0,0 -0.002,0 -0.002,0 -1.13797,-0.608225 -2.48564,-0.886433 -3.99653,-0.886433 z m -13.034242,0.251404 c -0.269562,0.01244 -0.540599,0.04443 -0.810577,0.09537 -0.560933,0.101989 -1.046987,0.435378 -1.517123,0.780233 -0.03624,-0.05038 -0.01173,-0.106284 -0.05635,-0.153879 -0.334398,-0.356692 -0.817862,-0.481144 -1.179021,-0.481144 h -3.146945 c -0.374869,0 -0.829513,0.0081 -1.27655,0.455136 -0.512425,0.512425 -0.455136,0.945859 -0.455136,1.343738 0,0.51866 0.01043,1.159348 0.03251,1.931079 0.02157,0.755144 0.03251,1.477469 0.03251,2.16515 v 12.980065 c 0,0.385179 -0.117638,0.670342 0.320764,1.254877 0.456156,0.608209 0.971036,0.576507 1.345903,0.576507 h 3.146946 c 0.370081,0 0.902936,-0.118692 1.280885,-0.593845 0.370826,-0.436139 0.418292,-0.850216 0.418292,-1.205029 V 65.44553 c 0,-0.493606 0.02115,-1.011867 0.06285,-1.553967 0.03747,-0.487095 0.122213,-0.947814 0.249241,-1.38925 0.135907,-0.401215 0.312198,-0.730614 0.52449,-1.007803 0.191576,-0.226765 0.416508,-0.386632 0.765063,-0.502817 0.06922,-0.02307 0.203736,-0.04552 0.429129,-0.01734 l 0.03468,0.0043 0.03468,0.0022 c 0.193047,0.01206 0.456827,0.07223 0.784569,0.210229 l -0.06502,-0.03034 c 0.20189,0.100946 0.433046,0.199393 0.773732,0.199393 0.340686,0 0.805858,-0.197289 1.046815,-0.498484 0.33538,-0.419225 0.374945,-0.843163 0.374945,-1.218032 v -2.850022 c 0,-0.214522 -0.05968,-0.479225 -0.20156,-0.78457 -0.125399,-0.301969 -0.294554,-0.56074 -0.47681,-0.706545 l -0.01951,-0.01517 -0.02167,-0.01517 c -0.488334,-0.355152 -1.045195,-0.468567 -1.627656,-0.498483 -0.26643,-0.02483 -0.534514,-0.03195 -0.804074,-0.01951 z m -28.066763,0.273082 c -0.408496,0 -0.961534,0.08412 -1.358909,0.580841 -0.33538,0.419225 -0.372778,0.843163 -0.372778,1.218033 v 10.882101 c 0,2.507474 0.580421,4.598331 1.868228,6.122672 1.306067,1.545957 3.30503,2.29519 5.665367,2.29519 0.465211,0 0.935906,-0.07177 1.410925,-0.203728 0.453573,-0.125993 0.894653,-0.290846 1.322063,-0.491982 0.198047,-0.0932 0.361406,-0.238813 0.546164,-0.353272 0.05734,0.09472 0.0018,0.168701 0.09753,0.264412 l 0.05635,0.05635 0.06285,0.04768 c 0.478007,0.358506 0.816105,0.320763 1.157348,0.320763 h 2.949719 c 0.2058,0 0.395524,-0.0084 0.630689,-0.06719 0.215621,-0.05391 0.56019,-0.215152 0.812744,-0.62202 0.292266,-0.458384 0.290421,-0.774914 0.290421,-1.109667 0,-0.560438 -0.0126,-1.193454 -0.03468,-1.900738 v -0.0022 c -0.0215,-0.710086 -0.03034,-1.388254 -0.03034,-2.030777 V 56.89106 c 0,-0.335584 -0.09536,-0.685133 -0.257911,-0.999132 C 82.885577,55.5895 82.61762,55.317107 82.344639,55.189716 82.05718,55.055569 81.794728,55.027168 81.555735,55.027168 h -3.047249 c -0.408494,0 -0.961533,0.08412 -1.358907,0.58084 -0.33538,0.419226 -0.374947,0.843164 -0.374947,1.218034 v 9.538364 c 0,1.438066 -0.313386,2.324195 -0.736887,2.802341 v 0.0022 c -0.477468,0.541131 -0.919513,0.739055 -1.595146,0.739055 -0.268131,0 -0.48276,-0.03954 -0.674036,-0.09753 -0.106661,-0.05059 -0.199326,-0.117517 -0.299089,-0.24274 -0.113018,-0.162167 -0.234921,-0.42195 -0.335935,-0.778066 -0.08218,-0.387761 -0.136541,-0.937664 -0.136541,-1.638493 V 56.858604 c 0,-0.34408 -0.09732,-0.722519 -0.303424,-1.055484 -0.331033,-0.546444 -0.993202,-0.775899 -1.462939,-0.775899 z m -20.047689,0.06502 c -0.366466,0 -0.892746,0.01565 -1.313393,0.576506 -0.385138,0.513517 -0.320764,0.835169 -0.320764,1.189857 v 17.076295 c 0,0.354687 -0.06437,0.676341 0.320764,1.189858 l 0.04768,0.06285 0.05635,0.05635 c 0.38165,0.38165 0.848308,0.457304 1.209362,0.457304 h 3.246643 c 0.34589,0 0.832228,-0.071 1.239705,-0.543997 0.38785,-0.443422 0.426962,-0.862391 0.426962,-1.222367 V 56.858606 c 0,-0.359975 -0.03912,-0.778944 -0.426962,-1.222367 -0.407477,-0.473 -0.893815,-0.543996 -1.239705,-0.543996 z m -12.947554,0.520156 c 2.228829,0 3.890099,0.569412 4.982663,1.705678 1.114415,1.136266 1.671002,2.893464 1.671002,5.275251 v 7.475078 0.949286 1.016472 c 0.02185,0.349619 0.03251,0.678044 0.03251,0.983961 0.02185,0.327769 0.04317,0.611392 0.06502,0.851756 0.0437,0.437026 0.02238,0.678015 -0.06502,0.721717 -0.08741,0.0437 -0.240959,0.06502 -0.459471,0.06502 h -3.014739 c -0.196662,0 -0.32673,-0.02132 -0.392285,-0.06502 -0.0437,-0.0437 -0.06719,-0.175938 -0.06719,-0.394452 v -1.408756 c -0.371471,0.589984 -0.981351,1.091112 -1.83355,1.506286 -0.830348,0.415174 -1.662068,0.624187 -2.492416,0.624187 -0.895901,0 -1.759596,-0.132236 -2.589944,-0.394452 -0.830348,-0.240363 -1.517005,-0.632738 -2.063286,-1.17902 -0.524431,-0.52443 -0.94029,-1.157794 -1.246208,-1.900737 -0.305918,-0.764795 -0.459472,-1.628489 -0.459472,-2.589945 0,-1.136266 0.272965,-2.164172 0.819247,-3.081925 0.546281,-0.917754 1.267081,-1.627894 2.162982,-2.130474 0.917753,-0.52443 2.00112,-0.895488 3.246643,-1.114002 1.245522,-0.240363 2.621002,-0.31714 4.12874,-0.229735 -0.131109,-1.72625 -0.873225,-2.675212 -2.228003,-2.850022 -0.437026,-0.0437 -0.884861,-0.03305 -1.343737,0.03251 -0.437025,0.06555 -0.874202,0.174305 -1.311227,0.327265 -0.415174,0.131107 -0.820376,0.295319 -1.213698,0.491981 -0.393322,0.17481 -0.743064,0.360338 -1.048981,0.557 -0.458877,0.305918 -0.785134,0.459472 -0.981795,0.459471 -0.196662,0 -0.294756,-0.219672 -0.294756,-0.656696 v -2.719984 c 0,-0.284067 0.02132,-0.480255 0.06502,-0.58951 0.06555,-0.131109 0.229765,-0.263345 0.49198,-0.394452 0.655538,-0.327769 1.418972,-0.632709 2.293022,-0.916776 0.895903,-0.284066 1.945126,-0.426962 3.146946,-0.426961 z m 74.096248,0 c 1.37663,0 2.53678,0.251647 3.47638,0.754226 0.96146,0.502579 1.73555,1.180744 2.32554,2.032944 0.61183,0.852199 1.04901,1.845963 1.31122,2.982229 0.26222,1.114414 0.39446,2.304365 0.39446,3.571739 v 1.081492 c -0.0219,0.262214 -0.088,0.471228 -0.19723,0.624188 -0.0874,0.131107 -0.26227,0.195058 -0.52449,0.195058 h -10.26009 c 0.15296,1.464034 0.61363,2.547402 1.37842,3.246641 0.78664,0.699241 1.71429,1.070299 2.78501,1.114001 1.00514,0.0437 1.87951,-0.0544 2.62245,-0.294755 0.76479,-0.240364 1.49625,-0.579446 2.19549,-1.016471 0.30592,-0.196662 0.51493,-0.252122 0.62418,-0.164717 0.10931,0.08741 0.16256,0.317735 0.16256,0.689207 v 2.457739 c 0,0.240364 -0.032,0.404575 -0.0975,0.49198 -0.0437,0.08741 -0.16528,0.206817 -0.36195,0.359775 -0.63369,0.437026 -1.44191,0.76545 -2.42522,0.983963 -0.96146,0.218512 -1.91043,0.327264 -2.85003,0.327264 -2.62215,0 -4.69928,-0.84021 -6.22887,-2.522757 -1.50774,-1.682548 -2.26051,-4.075276 -2.26051,-7.178156 0,-1.158117 0.15139,-2.316093 0.4573,-3.47421 0.30592,-1.158117 0.79856,-2.196682 1.47595,-3.114435 0.67739,-0.939605 1.50694,-1.69238 2.49024,-2.260512 0.98331,-0.589985 2.15194,-0.886433 3.50672,-0.886433 z m -12.967056,0.247074 c 0.223976,-0.01087 0.444686,-0.0067 0.6632,0.01517 0.458876,0.02185 0.808617,0.119945 1.048981,0.294755 0.109258,0.08741 0.175375,0.17484 0.197226,0.262245 0.0437,0.06555 0.06502,0.187132 0.06502,0.361943 v 2.850022 c 0,0.240364 -0.04263,0.415235 -0.130039,0.52449 -0.08741,0.109258 -0.240958,0.109258 -0.459472,0 -0.415174,-0.17481 -0.79689,-0.272903 -1.14651,-0.294755 -0.349621,-0.0437 -0.656728,-0.02238 -0.918943,0.06502 -0.524431,0.17481 -0.950949,0.4606 -1.278718,0.853922 -0.305917,0.393324 -0.544738,0.851817 -0.719549,1.376248 -0.152958,0.524429 -0.251053,1.070359 -0.294755,1.638491 -0.0437,0.568133 -0.06719,1.114062 -0.06719,1.638493 v 8.456872 c 0,0.262216 -0.04263,0.437087 -0.13004,0.524492 -0.06556,0.109258 -0.219107,0.164716 -0.459471,0.164716 h -3.146945 c -0.240364,0 -0.393917,-0.0448 -0.459471,-0.132207 -0.06556,-0.08741 -0.09753,-0.283592 -0.09753,-0.589511 V 60.889817 c 0,-0.699241 -0.01065,-1.430698 -0.03251,-2.195493 -0.02185,-0.764794 -0.03251,-1.398158 -0.03251,-1.900737 0,-0.284067 0.04263,-0.469596 0.130038,-0.557 0.08741,-0.08741 0.251617,-0.132207 0.491981,-0.132207 h 3.146946 c 0.327769,0 0.491981,0.17487 0.491981,0.524491 v 1.246207 c 0.284066,-0.415174 0.644466,-0.820375 1.081492,-1.213697 0.437025,-0.393323 0.895518,-0.634313 1.376246,-0.721718 0.229438,-0.0437 0.456562,-0.06927 0.680537,-0.0802 z m -28.133949,0.277417 h 3.014739 c 0.262214,0 0.437085,0.07678 0.52449,0.229735 0.08741,0.131107 0.132206,0.29532 0.132206,0.491981 v 10.292591 c 0,0.764795 0.0533,1.398159 0.16255,1.900738 0.131107,0.480728 0.305978,0.873102 0.52449,1.179021 0.218513,0.284066 0.480819,0.493079 0.786737,0.624187 0.327769,0.109258 0.688169,0.162549 1.081491,0.162549 0.961455,0 1.771858,-0.371058 2.427396,-1.114001 0.677389,-0.764795 1.014304,-1.944087 1.014304,-3.53923 v -9.538364 c 0,-0.240365 0.0448,-0.415235 0.132207,-0.524492 0.08741,-0.109258 0.251617,-0.164715 0.49198,-0.164715 h 3.047249 c 0.262215,0 0.426427,0.07678 0.491981,0.229735 0.08741,0.152959 0.132207,0.32783 0.132207,0.52449 v 13.142614 c 0,0.655538 0.01065,1.344362 0.03251,2.065454 0.02185,0.699241 0.03251,1.321947 0.03251,1.868228 0,0.284067 -0.03414,0.469595 -0.09969,0.557 -0.0437,0.08741 -0.218574,0.132207 -0.524491,0.132207 h -2.949719 c -0.240364,0 -0.40241,-0.03414 -0.489814,-0.09969 -0.06556,-0.06556 -0.09969,-0.184965 -0.09969,-0.359775 V 72.95094 c -0.196662,0.305917 -0.458968,0.578882 -0.786737,0.819246 -0.305917,0.262215 -0.645,0.481887 -1.016471,0.656697 -0.371472,0.17481 -0.753189,0.317705 -1.146511,0.426961 -0.393324,0.109258 -0.764382,0.16255 -1.114002,0.16255 -2.141424,0 -3.747234,-0.633365 -4.817946,-1.900738 C 68.12916,71.848282 67.59389,70.046283 67.59389,67.708198 V 56.826097 c 0,-0.240365 0.04263,-0.415235 0.130039,-0.524491 0.08741,-0.109258 0.251618,-0.164716 0.491981,-0.164716 z m -20.047689,0.06502 h 3.246643 c 0.218512,0 0.35924,0.0448 0.424794,0.132206 0.08741,0.08741 0.132207,0.262276 0.132207,0.52449 v 17.076295 c 0,0.262216 -0.0448,0.437087 -0.132207,0.524491 -0.06555,0.08741 -0.206282,0.132207 -0.424794,0.132207 h -3.246643 c -0.19666,0 -0.337388,-0.0448 -0.424793,-0.132207 -0.06555,-0.08741 -0.09969,-0.262275 -0.09969,-0.524491 V 56.858606 c 0,-0.262214 0.03414,-0.437085 0.09969,-0.524491 0.06555,-0.08741 0.206281,-0.132205 0.424793,-0.132205 z m 61.248394,3.211964 c -0.45887,0 -0.8854,0.110923 -1.27872,0.329433 -0.39332,0.218512 -0.74306,0.502135 -1.04898,0.851755 -0.28406,0.349621 -0.53571,0.752654 -0.75423,1.211531 -0.21851,0.458876 -0.35924,0.940854 -0.42479,1.443433 h 6.65366 c 0,-0.437025 -0.0768,-0.88486 -0.22973,-1.343737 -0.13111,-0.458876 -0.3273,-0.864078 -0.58951,-1.213698 -0.24037,-0.371471 -0.55813,-0.676411 -0.95145,-0.916775 -0.39332,-0.240363 -0.85181,-0.361942 -1.37625,-0.361942 z m 0,1.109667 c 0.3549,0 0.59148,0.07346 0.79758,0.199393 0.26209,0.160179 0.44848,0.340826 0.59818,0.572171 l 0.0195,0.03251 0.0239,0.03034 c 0.16093,0.214577 0.28141,0.478766 0.3771,0.782401 h -3.8058 c 0.15958,-0.309873 0.32669,-0.595925 0.51148,-0.825748 0.22259,-0.251283 0.46398,-0.449686 0.73906,-0.602513 0.23318,-0.129544 0.45632,-0.188557 0.73905,-0.188557 z m -71.443455,5.086694 c -1.245522,0.02185 -2.271262,0.119945 -3.079758,0.294755 -0.808496,0.152959 -1.465346,0.370463 -1.967925,0.65453 -0.480727,0.284066 -0.806984,0.623149 -0.981794,1.016473 -0.17481,0.393322 -0.262245,0.830498 -0.262245,1.311226 0,0.699241 0.206845,1.245169 0.62202,1.638493 0.415174,0.371471 0.995245,0.557 1.738188,0.557 1.179969,0 2.118273,-0.424351 2.817513,-1.27655 0.721092,-0.87405 1.09215,-2.273016 1.114001,-4.195927 z m -1.257044,1.228878 c -0.141872,1.028026 -0.37506,1.850829 -0.713047,2.260512 l -0.0022,0.0022 c -0.505086,0.615573 -1.046429,0.871261 -1.959255,0.871261 -0.548373,0 -0.811259,-0.120257 -0.981795,-0.268748 -0.169911,-0.164887 -0.268747,-0.347559 -0.268747,-0.817078 0,-0.346223 0.06022,-0.620427 0.166883,-0.860424 0.06099,-0.137217 0.197547,-0.308226 0.526659,-0.504986 0.355135,-0.198897 0.893988,-0.390317 1.614651,-0.526658 l 0.01517,-0.0022 0.01301,-0.0043 c 0.389681,-0.08426 1.042638,-0.102633 1.588644,-0.149546 z m 41.300404,7.774168 -0.06502,0.05201 c 0.0101,-0.0074 0.01597,-0.01852 0.02601,-0.02601 0.01196,-0.0101 0.02713,-0.01582 0.03902,-0.02601 z"
       style="color:#000000;font-style:normal;font-variant:normal;font-weight:normal;font-stretch:normal;font-size:29.53760719px;line-height:18.46100426px;font-family:sans-serif;font-variant-ligatures:normal;font-variant-position:normal;font-variant-caps:normal;font-variant-numeric:normal;font-variant-alternates:normal;font-feature-settings:normal;text-indent:0;text-align:start;text-decoration:none;text-decoration-line:none;text-decoration-style:solid;text-decoration-color:#000000;letter-spacing:1.50999999px;word-spacing:0px;text-transform:none;writing-mode:lr-tb;direction:ltr;text-orientation:mixed;dominant-baseline:auto;baseline-shift:baseline;text-anchor:start;white-space:normal;shape-padding:0;clip-rule:nonzero;display:inline;overflow:visible;visibility:visible;opacity:1;isolation:auto;mix-blend-mode:normal;color-interpolation:sRGB;color-interpolation-filters:linearRGB;solid-color:#000000;solid-opacity:1;vector-effect:none;fill:#000000;fill-opacity:1;fill-rule:nonzero;stroke:#080700;stroke-width:0.2;stroke-linecap:butt;stroke-linejoin:miter;stroke-miterlimit:4;stroke-dasharray:none;stroke-dashoffset:0;stroke-opacity:1;paint-order:stroke markers fill;color-rendering:auto;image-rendering:auto;shape-rendering:auto;text-rendering:auto;enable-background:accumulate"
       inkscape:connector-curvature="0" />
  </g>
</svg>
