<?xml version="1.0" encoding="UTF-8" standalone="no"?>
<!-- Created with Inkscape (http://www.inkscape.org/) -->

<svg
   xmlns:dc="http://purl.org/dc/elements/1.1/"
   xmlns:cc="http://creativecommons.org/ns#"
   xmlns:rdf="http://www.w3.org/1999/02/22-rdf-syntax-ns#"
   xmlns:svg="http://www.w3.org/2000/svg"
   xmlns="http://www.w3.org/2000/svg"
   xmlns:xlink="http://www.w3.org/1999/xlink"
   xmlns:sodipodi="http://sodipodi.sourceforge.net/DTD/sodipodi-0.dtd"
   xmlns:inkscape="http://www.inkscape.org/namespaces/inkscape"
   width="395"
   height="128"
   viewBox="0 0 395 128"
   version="1.1"
   id="svg8"
   inkscape:version="0.92.1 r15371"
   sodipodi:docname="normal_@zz.svg"
   inkscape:export-filename="render.png"
   inkscape:export-xdpi="96"
   inkscape:export-ydpi="96">
  <defs
     id="defs2">
    <linearGradient
       inkscape:collect="always"
       id="linearGradient4572">
      <stop
         style="stop-color:#ffffff;stop-opacity:1"
         offset="0"
         id="stop4568" />
      <stop
         style="stop-color:#969b9c;stop-opacity:1"
         offset="1"
         id="stop4570" />
    </linearGradient>
    <linearGradient
       inkscape:collect="always"
       xlink:href="#linearGradient4572"
       id="linearGradient4669"
       gradientUnits="userSpaceOnUse"
       x1="41"
       y1="399"
       x2="41"
       y2="420" />
    <filter
       inkscape:collect="always"
       style="color-interpolation-filters:sRGB"
       id="filter4738"
       x="-0.0063345456"
       width="1.0126691"
       y="-0.11360863"
       height="1.2272173">
      <feGaussianBlur
         inkscape:collect="always"
         stdDeviation="0.97373534"
         id="feGaussianBlur4740" />
    </filter>
  </defs>
  <sodipodi:namedview
     id="base"
     pagecolor="#353638"
     bordercolor="#666666"
     borderopacity="1.0"
     inkscape:pageopacity="0.0"
     inkscape:pageshadow="2"
     inkscape:zoom="2.4394531"
     inkscape:cx="142.10993"
     inkscape:cy="106.22253"
     inkscape:document-units="px"
     inkscape:current-layer="layer1"
     showgrid="true"
     units="px"
     inkscape:window-maximized="1"
     inkscape:snap-grids="false"
     inkscape:snap-global="false"
     fit-margin-top="0"
     fit-margin-left="0"
     fit-margin-right="0"
     fit-margin-bottom="0"
     inkscape:window-width="2560"
     inkscape:window-height="1377"
     inkscape:window-x="-8"
     inkscape:window-y="-8">
    <inkscape:grid
       type="xygrid"
       id="grid_pixel"
       visible="true"
       originx="0"
       originy="0" />
  </sodipodi:namedview>
  <metadata
     id="metadata5">
    <rdf:RDF>
      <cc:Work
         rdf:about="">
        <dc:format>image/svg+xml</dc:format>
        <dc:type
           rdf:resource="http://purl.org/dc/dcmitype/StillImage" />
        <dc:title></dc:title>
      </cc:Work>
    </rdf:RDF>
  </metadata>
  <g
     inkscape:label="Layer 1"
     inkscape:groupmode="layer"
     id="layer1"
     transform="translate(0,-384)">
    <path
       id="path4736"
       d="m 59.621094,400.35152 c -0.08301,0 -0.158196,0.0332 -0.22461,0.0996 -0.04981,0.0498 -0.07422,0.11621 -0.07422,0.19922 v 19.62501 c 0,0.083 0.02441,0.14942 0.07422,0.19922 0.06641,0.0664 0.141598,0.0996 0.22461,0.0996 h 2.041015 c 0.199228,0 0.298829,-0.0996 0.298829,-0.29883 v -9.58789 c 0.464866,-1.32819 1.56925,-1.99219 3.3125,-1.99219 0.780311,0 1.344709,0.29001 1.693359,0.8711 0.365252,0.56448 0.548828,1.46966 0.548828,2.71484 v 7.99415 c 0,0.19923 0.108387,0.29883 0.324219,0.29883 h 2.041015 c 0.08301,0 0.149412,-0.0332 0.199219,-0.0996 0.06641,-0.0498 0.09961,-0.11621 0.09961,-0.19922 v -8.01953 c -10e-7,-4.06758 -1.642417,-6.10156 -4.929688,-6.10156 -0.664095,0 -1.279269,0.11717 -1.84375,0.34961 -0.547878,0.21583 -1.030252,0.49705 -1.445312,0.8457 v -6.69923 c 0,-0.083 -0.0332,-0.14942 -0.09961,-0.19922 -0.04981,-0.0664 -0.116207,-0.0996 -0.199219,-0.0996 z m 78.896486,0 c -0.083,0 -0.15821,0.0332 -0.22461,0.0996 -0.0498,0.0498 -0.0742,0.11621 -0.0742,0.19922 v 19.62501 c 0,0.083 0.0244,0.14942 0.0742,0.19922 0.0664,0.0664 0.1416,0.0996 0.22461,0.0996 h 2.04101 c 0.19923,0 0.29883,-0.0996 0.29883,-0.29883 v -9.58789 c 0.46487,-1.32819 1.56926,-1.99219 3.3125,-1.99219 0.78032,0 1.34471,0.29001 1.69336,0.8711 0.36525,0.56448 0.54883,1.46966 0.54883,2.71484 v 7.99415 c 0,0.19923 0.10838,0.29883 0.32422,0.29883 h 2.04101 c 0.083,0 0.14942,-0.0332 0.19922,-0.0996 0.0664,-0.0498 0.0996,-0.11621 0.0996,-0.19922 v -8.01953 c 0,-4.06758 -1.64437,-6.10156 -4.93164,-6.10156 -0.66409,0 -1.27731,0.11717 -1.8418,0.34961 -0.54787,0.21583 -1.03025,0.49705 -1.44531,0.8457 v -6.69923 c 0,-0.083 -0.0332,-0.14942 -0.0996,-0.19922 -0.0498,-0.0664 -0.11621,-0.0996 -0.19922,-0.0996 z m 75.5039,0 c -0.083,0 -0.15821,0.0332 -0.2246,0.0996 -0.0498,0.0498 -0.0742,0.11621 -0.0742,0.19922 v 19.62501 c 0,0.083 0.0244,0.14942 0.0742,0.19922 0.0664,0.0664 0.14159,0.0996 0.2246,0.0996 h 2.01563 c 0.21583,0 0.32422,-0.0996 0.32422,-0.29883 v -4.38281 l 1.16992,-1.34571 3.98633,5.70313 c 0.083,0.13282 0.15625,0.2168 0.22265,0.25 0.083,0.0498 0.21582,0.0742 0.39844,0.0742 h 2.3418 c 0.28224,0 0.33985,-0.10839 0.17383,-0.32422 l -5.4043,-7.7207 4.85742,-5.4043 c 0.21584,-0.23243 0.16506,-0.34766 -0.15039,-0.34766 h -2.46484 c -0.13282,0 -0.26562,0.0752 -0.39844,0.22461 l -4.73242,5.08008 v -11.43161 c 0,-0.083 -0.0332,-0.14942 -0.0996,-0.19922 -0.0498,-0.0664 -0.125,-0.0996 -0.22461,-0.0996 z m -112.55273,0.39844 c -0.48147,0 -0.88865,0.166 -1.2207,0.49805 -0.315445,0.33204 -0.472659,0.73923 -0.472659,1.2207 0,0.46487 0.157214,0.86327 0.472659,1.19531 0.33205,0.31545 0.73923,0.47266 1.2207,0.47266 0.48147,0 0.88866,-0.15721 1.2207,-0.47266 0.33206,-0.33204 0.49805,-0.73044 0.49805,-1.19531 0,-0.48147 -0.16599,-0.88866 -0.49805,-1.2207 -0.33204,-0.33205 -0.73923,-0.49805 -1.2207,-0.49805 z m 21.10937,0 c -0.48146,0 -0.88864,0.166 -1.2207,0.49805 -0.31544,0.33204 -0.47265,0.73923 -0.47265,1.2207 0,0.46487 0.15721,0.86327 0.47265,1.19531 0.33206,0.31545 0.73924,0.47266 1.2207,0.47266 0.48147,0 0.88866,-0.15721 1.22071,-0.47266 0.33205,-0.33204 0.49805,-0.73044 0.49805,-1.19531 -1e-5,-0.48147 -0.166,-0.88866 -0.49805,-1.2207 -0.33205,-0.33205 -0.73924,-0.49805 -1.22071,-0.49805 z m 239.22461,0 c -0.48147,0 -0.88865,0.166 -1.2207,0.49805 -0.31545,0.33204 -0.47265,0.73923 -0.47265,1.2207 0,0.46487 0.1572,0.86327 0.47265,1.19531 0.33205,0.31545 0.73923,0.47266 1.2207,0.47266 0.48147,0 0.88671,-0.15721 1.21875,-0.47266 0.33205,-0.33204 0.49805,-0.73044 0.49805,-1.19531 0,-0.48147 -0.166,-0.88866 -0.49805,-1.2207 -0.33204,-0.33205 -0.73728,-0.49805 -1.21875,-0.49805 z m -343.619136,0.67383 c -1.427805,0 -2.7226,0.23923 -3.884766,0.7207 -1.145564,0.46487 -2.125936,1.12886 -2.939453,1.99219 -0.813517,0.84672 -1.4443143,1.86908 -1.8925781,3.06445 -0.4316618,1.19537 -0.6464844,2.51458 -0.6464844,3.95899 0,1.461 0.2236108,2.789 0.671875,3.98437 0.4482641,1.19537 1.0790615,2.22456 1.8925785,3.08789 0.813516,0.84672 1.793889,1.50388 2.939453,1.96875 1.162166,0.46487 2.448173,0.69727 3.859375,0.69727 0.896528,0 1.684537,-0.0596 2.365234,-0.17578 0.680698,-0.11622 1.262672,-0.24023 1.744141,-0.37305 0.182624,-0.0498 0.291012,-0.11621 0.324219,-0.19922 0.04981,-0.083 0.06543,-0.21581 0.04883,-0.39844 l -0.09961,-1.76758 c 0,-0.11622 -0.0332,-0.19141 -0.09961,-0.2246 -0.06641,-0.0332 -0.207997,-0.009 -0.423828,0.0742 -0.514674,0.18263 -1.079072,0.31543 -1.69336,0.39844 -0.597685,0.0664 -1.328082,0.0996 -2.191406,0.0996 -0.962938,0 -1.841758,-0.18162 -2.638672,-0.54687 -0.780311,-0.36526 -1.461885,-0.86326 -2.042969,-1.49415 -0.56448,-0.64749 -1.004867,-1.40425 -1.320312,-2.26757 -0.315445,-0.87993 -0.472656,-1.83394 -0.472656,-2.86328 0,-1.04596 0.141587,-1.99997 0.423828,-2.86329 0.298843,-0.87992 0.721652,-1.63668 1.269531,-2.26757 0.564481,-0.63089 1.246055,-1.1201 2.042969,-1.46875 0.813517,-0.34865 1.734324,-0.52344 2.763672,-0.52344 1.344792,0 2.639587,0.19236 3.884765,0.57422 0.199229,0.0664 0.340817,0.0996 0.423829,0.0996 0.08301,0 0.125,-0.13281 0.125,-0.39844 l 0.04883,-1.84375 c 0.01661,-0.16603 0.0078,-0.28126 -0.02539,-0.34766 -0.0332,-0.083 -0.139639,-0.14942 -0.322266,-0.19922 -0.581082,-0.18263 -1.229456,-0.3086 -1.943359,-0.375 -0.713902,-0.083 -1.4443,-0.12304 -2.191406,-0.12304 z m 70.138672,0.34765 c -0.132822,0 -0.232422,0.0332 -0.298828,0.0996 -0.06641,0.0498 -0.09961,0.16699 -0.09961,0.34961 v 17.95508 c 0,0.24903 0.124012,0.37305 0.373047,0.37305 h 2.042969 c 0.232433,0 0.347656,-0.12402 0.347656,-0.37305 v -7.99414 h 6.175781 c 0.215831,0 0.324219,-0.0996 0.324219,-0.29883 v -2.01758 c 0,-0.19922 -0.108388,-0.29882 -0.324219,-0.29882 H 90.6875 v -5.1543 h 6.525391 c 0.199228,0 0.298828,-0.11718 0.298828,-0.34961 v -1.99219 c 0,-0.083 -0.0332,-0.14942 -0.09961,-0.19922 -0.04981,-0.0664 -0.116206,-0.0996 -0.199218,-0.0996 z m 82.230464,0 c -0.083,0 -0.1582,0.0332 -0.22461,0.0996 -0.0498,0.0498 -0.0742,0.11622 -0.0742,0.19922 v 18.1543 c 0,0.21583 0.0996,0.32422 0.29882,0.32422 h 2.21485 c 0.21583,0 0.32422,-0.10839 0.32422,-0.32422 v -7.29688 h 2.83984 l 3.81055,7.37305 c 0.083,0.11622 0.15625,0.18262 0.22265,0.19922 0.083,0.0332 0.21581,0.0488 0.39844,0.0488 h 2.0918 c 0.33204,0 0.43165,-0.11523 0.29883,-0.34766 l -4.15821,-7.91992 c 0.92974,-0.43167 1.66014,-1.06246 2.19141,-1.89258 0.53127,-0.84672 0.79687,-1.87592 0.79687,-3.08789 0,-1.89267 -0.53998,-3.28706 -1.61914,-4.18359 -1.07915,-0.89653 -2.53995,-1.34571 -4.38281,-1.34571 z m 82.50782,0 c -0.21584,0 -0.32422,0.10839 -0.32422,0.32422 v 18.12891 c 0,0.21583 0.10838,0.32422 0.32422,0.32422 h 2.26562 c 0.21584,0 0.32422,-0.10839 0.32422,-0.32422 v -18.12891 c 0,-0.21583 -0.10838,-0.32422 -0.32422,-0.32422 z m 80.59375,0 c -0.21584,0 -0.3418,0.0332 -0.375,0.0996 -0.0332,0.0498 -0.0332,0.13379 0,0.25 l 5.25586,18.15431 c 0.0332,0.13282 0.0732,0.20801 0.12304,0.22461 0.0498,0.0332 0.14257,0.0488 0.27539,0.0488 h 2.36524 c 0.14942,0 0.24024,-0.0156 0.27344,-0.0488 0.0498,-0.0166 0.0918,-0.0918 0.125,-0.22461 l 4.13476,-14.14648 4.13281,14.14648 c 0.0332,0.13282 0.0752,0.20801 0.125,0.22461 0.0498,0.0332 0.14062,0.0488 0.27344,0.0488 h 2.36719 c 0.13282,0 0.22364,-0.0156 0.27344,-0.0488 0.0498,-0.0166 0.0918,-0.0918 0.125,-0.22461 l 5.2539,-18.1543 c 0.0332,-0.11622 0.0332,-0.2002 0,-0.25 -0.0332,-0.0664 -0.15721,-0.0996 -0.37304,-0.0996 h -2.06836 c -0.11623,0 -0.19825,0.0176 -0.24805,0.0508 -0.0498,0.0166 -0.0918,0.083 -0.125,0.19921 l -4.13281,14.01953 -4.03516,-14.01953 c -0.0332,-0.11622 -0.084,-0.18261 -0.15039,-0.19921 -0.0498,-0.0332 -0.13183,-0.0508 -0.24805,-0.0508 h -2.34179 c -0.11623,0 -0.20704,0.0176 -0.27344,0.0508 -0.0498,0.0166 -0.0918,0.083 -0.125,0.19921 l -4.0332,14.01953 -4.13477,-14.01953 c -0.0332,-0.11622 -0.0752,-0.18261 -0.125,-0.19921 -0.0498,-0.0332 -0.13183,-0.0508 -0.24805,-0.0508 z m -73.29297,1.22071 c -0.083,0 -0.15626,0.0332 -0.22266,0.0996 -0.0664,0.0498 -0.0996,0.1162 -0.0996,0.19921 v 3.48633 h -2.06836 c -0.083,0 -0.15625,0.0332 -0.22265,0.0996 -0.0498,0.0498 -0.0762,0.11621 -0.0762,0.19922 v 1.9668 c 0,0.083 0.0264,0.15821 0.0762,0.22461 0.0664,0.0498 0.13964,0.0742 0.22265,0.0742 h 2.06836 v 6.25195 c 0,0.99614 0.0244,1.78415 0.0742,2.36523 0.0498,0.58108 0.1914,1.08787 0.42383,1.51953 0.19923,0.38186 0.50681,0.71386 0.92187,0.9961 0.41506,0.29884 0.97067,0.44726 1.66797,0.44726 0.58108,0 1.12107,-0.0664 1.61914,-0.19921 0.51468,-0.11622 0.88671,-0.24902 1.11914,-0.39844 0.0996,-0.083 0.1416,-0.18261 0.125,-0.29883 l -0.19921,-1.64258 c -0.0332,-0.13282 -0.0664,-0.20801 -0.0996,-0.22461 -0.0332,-0.0332 -0.0908,-0.0332 -0.17383,0 -0.19923,0.083 -0.43163,0.15821 -0.69727,0.22461 -0.26564,0.0498 -0.50683,0.0899 -0.72265,0.12305 -0.31545,0.0332 -0.59667,0.0176 -0.84571,-0.0488 -0.24904,-0.0664 -0.40821,-0.24998 -0.47461,-0.54883 -0.0498,-0.29884 -0.0742,-1.01166 -0.0742,-2.14062 v -6.42578 h 2.39063 c 0.083,0 0.14942,-0.0244 0.19922,-0.0742 0.0664,-0.0664 0.0996,-0.1416 0.0996,-0.22461 v -1.9668 c 0,-0.083 -0.0332,-0.14942 -0.0996,-0.19922 -0.0498,-0.0664 -0.11621,-0.0996 -0.19922,-0.0996 h -2.39063 v -3.48633 c 0,-0.083 -0.0332,-0.14941 -0.0996,-0.19921 -0.0498,-0.0664 -0.125,-0.0996 -0.22461,-0.0996 z m -87.26953,1.39453 h 2.83984 c 0.84672,0 1.51951,0.24803 2.01758,0.74609 0.51467,0.48148 0.77148,1.19625 0.77148,2.14258 0,1.09575 -0.32321,1.88376 -0.9707,2.36523 -0.64749,0.46487 -1.51947,0.69727 -2.61523,0.69727 h -2.04297 z m -133.263675,1.99219 c -0.896528,0 -1.642549,0.0908 -2.240234,0.27343 -0.581084,0.18263 -1.15427,0.41503 -1.71875,0.69727 -0.19923,0.11623 -0.323241,0.20704 -0.373047,0.27344 -0.03321,0.0498 -0.05078,0.1162 -0.05078,0.19922 0.0166,0.0664 0.02539,0.13281 0.02539,0.19921 v 1.89453 c 0,0.16603 0.04199,0.25684 0.125,0.27344 0.09961,0.0166 0.281237,-0.0586 0.546875,-0.22461 0.531276,-0.33204 1.095674,-0.59765 1.69336,-0.79687 0.614288,-0.19923 1.295861,-0.29883 2.042968,-0.29883 0.431662,0 0.788072,0.084 1.070313,0.25 0.28224,0.14943 0.499015,0.34862 0.648437,0.59766 0.166026,0.24903 0.28125,0.53025 0.347656,0.8457 0.06641,0.31545 0.09961,0.63182 0.09961,0.94727 -1.411202,-10e-6 -2.615186,0.10643 -3.611328,0.32226 -0.996143,0.19923 -1.817351,0.5156 -2.464844,0.94727 -0.63089,0.41506 -1.095688,0.94625 -1.394531,1.59375 -0.298843,0.63088 -0.449219,1.37007 -0.449219,2.21679 0,0.71391 0.117176,1.34471 0.349609,1.89258 0.232434,0.53128 0.546856,0.9785 0.945313,1.34375 0.415059,0.36525 0.906222,0.63964 1.470703,0.82227 0.581083,0.18262 1.211881,0.27343 1.892578,0.27343 0.647493,0 1.287079,-0.14842 1.917969,-0.44726 0.647493,-0.28224 1.178691,-0.71384 1.59375,-1.29492 v 1.12109 c 0,0.0996 0.01562,0.15723 0.04883,0.17383 0.03321,0.0332 0.108393,0.0488 0.224609,0.0488 h 2.017579 c 0.215833,0 0.306644,-0.1328 0.273437,-0.39844 -0.04981,-0.38185 -0.08301,-0.82029 -0.09961,-1.31836 v -1.4707 -5.90235 c 0,-1.74324 -0.407187,-3.02047 -1.220704,-3.83398 -0.796914,-0.81352 -2.034096,-1.2207 -3.710937,-1.2207 z m 150.374995,0 c -0.89652,0 -1.64254,0.0908 -2.24023,0.27343 -0.58108,0.18263 -1.15427,0.41503 -1.71875,0.69727 -0.19924,0.11623 -0.3252,0.20704 -0.375,0.27344 -0.0332,0.0498 -0.0488,0.1162 -0.0488,0.19922 0.0166,0.0664 0.0254,0.13281 0.0254,0.19921 v 1.89453 c 0,0.16603 0.04,0.25684 0.12305,0.27344 0.0996,0.0166 0.28319,-0.0586 0.54883,-0.22461 0.53128,-0.33204 1.09567,-0.59765 1.69336,-0.79687 0.61428,-0.19923 1.29586,-0.29883 2.04297,-0.29883 0.43166,0 0.78807,0.084 1.07031,0.25 0.28224,0.14943 0.49706,0.34862 0.64648,0.59766 0.16604,0.24903 0.28321,0.53025 0.34961,0.8457 0.0664,0.31545 0.0996,0.63182 0.0996,0.94727 -1.4112,-10e-6 -2.61518,0.10643 -3.61133,0.32226 -0.99614,0.19923 -1.81735,0.5156 -2.46484,0.94727 -0.63089,0.41506 -1.09569,0.94625 -1.39453,1.59375 -0.29884,0.63088 -0.44922,1.37007 -0.44922,2.21679 0,0.71391 0.11718,1.34471 0.34961,1.89258 0.23243,0.53128 0.54686,0.9785 0.94531,1.34375 0.41506,0.36525 0.90427,0.63964 1.46875,0.82227 0.58109,0.18262 1.21384,0.27343 1.89453,0.27343 0.6475,0 1.28513,-0.14842 1.91602,-0.44726 0.64749,-0.28224 1.17869,-0.71384 1.59375,-1.29492 v 1.12109 c 0,0.0996 0.0176,0.15723 0.0508,0.17383 0.0332,0.0332 0.1084,0.0488 0.22461,0.0488 h 2.01562 c 0.21583,0 0.3086,-0.1328 0.2754,-0.39844 -0.0498,-0.38185 -0.083,-0.82029 -0.0996,-1.31836 v -1.4707 -5.90235 c 0,-1.74324 -0.40719,-3.02047 -1.22071,-3.83398 -0.79691,-0.81352 -2.0341,-1.2207 -3.71094,-1.2207 z m -137.974604,0.0254 c -0.597686,0 -1.170872,0.082 -1.71875,0.24804 -0.531276,0.14942 -1.00291,0.3994 -1.417969,0.74805 -0.415059,0.33205 -0.747059,0.75486 -0.996094,1.26953 -0.249036,0.49807 -0.375,1.09567 -0.375,1.79297 0,0.63089 0.174788,1.21287 0.523438,1.74414 0.365252,0.51468 0.814426,0.9287 1.345703,1.24414 0.464866,0.26564 0.936499,0.54003 1.417968,0.82227 0.481469,0.26564 0.946268,0.53124 1.394532,0.79687 0.431662,0.28225 0.739249,0.56346 0.921875,0.8457 0.182626,0.26564 0.273437,0.53124 0.273437,0.79688 0,0.48147 -0.181623,0.90623 -0.546875,1.27148 -0.34865,0.36526 -0.888636,0.54688 -1.61914,0.54688 -0.464866,0 -0.996064,-0.0332 -1.59375,-0.0996 -0.581084,-0.083 -1.145482,-0.20702 -1.69336,-0.37305 -0.182624,-0.0498 -0.291012,-0.0586 -0.324219,-0.0254 -0.03321,0.0332 -0.05762,0.13281 -0.07422,0.29883 l -0.148438,1.61914 c -0.0166,0.13283 0.0078,0.22364 0.07422,0.27344 0.08302,0.0664 0.158203,0.11719 0.224609,0.15039 0.149422,0.0664 0.355456,0.13282 0.621094,0.19922 0.265638,0.0664 0.564436,0.12403 0.896484,0.17383 0.34865,0.0498 0.707013,0.0918 1.072266,0.125 0.365252,0.0332 0.712874,0.0488 1.044922,0.0488 1.228575,0 2.290971,-0.29879 3.1875,-0.89648 1.11236,-0.81351 1.669922,-1.9179 1.669922,-3.3125 0,-0.7139 -0.150376,-1.31833 -0.449219,-1.81641 -0.298843,-0.51467 -0.748018,-0.98826 -1.345703,-1.41992 -0.215831,-0.16602 -0.547829,-0.3828 -0.996094,-0.64844 -0.431661,-0.26563 -0.903294,-0.52244 -1.417968,-0.77148 -0.481469,-0.24903 -0.879868,-0.52343 -1.195313,-0.82227 -0.315445,-0.29884 -0.474609,-0.58006 -0.474609,-0.8457 0,-0.44826 0.141587,-0.83104 0.423828,-1.14648 0.28224,-0.31545 0.764615,-0.47266 1.445312,-0.47266 0.381855,0 0.696277,0.0156 0.945313,0.0488 0.265638,0.0332 0.515613,0.0664 0.748047,0.0996 0.398457,0.0996 0.754867,0.208 1.070312,0.32422 0.182629,0.0332 0.30664,0.042 0.373047,0.0254 0.06641,-0.0332 0.1084,-0.14159 0.125,-0.32422 l 0.150391,-1.59375 c 0.0166,-0.083 0.0166,-0.14063 0,-0.17383 0,-0.0498 -0.04199,-0.10059 -0.125,-0.15039 -0.132819,-0.083 -0.332019,-0.15626 -0.597657,-0.22266 -0.249036,-0.083 -0.540999,-0.14941 -0.873047,-0.19922 -0.315445,-0.0664 -0.647443,-0.11719 -0.996093,-0.15039 -0.332048,-0.0332 -0.655258,-0.0488 -0.970703,-0.0488 z m 60.277344,0 c -0.76371,0 -1.4365,0.13962 -2.01758,0.42187 -0.58108,0.28224 -1.07908,0.62303 -1.49414,1.02149 l 0.0254,-0.89649 c 0.0332,-0.13282 -0.042,-0.19922 -0.22461,-0.19922 h -1.9668 c -0.26563,0 -0.3828,0.10839 -0.3496,0.32422 0.0332,0.33205 0.0508,0.78806 0.0508,1.36914 0.0166,0.58108 0.0254,1.18747 0.0254,1.81836 v 9.91211 c 0,0.083 0.0244,0.15821 0.0742,0.22461 0.0664,0.083 0.14159,0.12305 0.22461,0.12305 h 2.0664 c 0.19923,0 0.29883,-0.10644 0.29883,-0.32227 v -7.79492 c 0,-1.14556 0.25681,-2.01755 0.77148,-2.61524 0.53128,-0.61428 1.34565,-0.92187 2.44141,-0.92187 0.79691,0 1.37693,0.2656 1.74219,0.79687 0.38185,0.53129 0.57422,1.39448 0.57422,2.58985 v 7.91992 c 0,0.083 0.0244,0.15821 0.0742,0.22461 0.0664,0.083 0.14159,0.12305 0.22461,0.12305 h 2.0664 c 0.19923,0 0.29883,-0.10644 0.29883,-0.32227 v -8.31836 c 0,-1.77645 -0.42281,-3.13081 -1.26953,-4.06054 -0.83012,-0.94634 -2.04289,-1.41797 -3.63672,-1.41797 z m 18.61914,0 c -0.59768,0 -1.17087,0.082 -1.71875,0.24804 -0.53128,0.14942 -1.00486,0.3994 -1.41992,0.74805 -0.41506,0.33205 -0.74706,0.75486 -0.9961,1.26953 -0.24903,0.49807 -0.37304,1.09567 -0.37304,1.79297 0,0.63089 0.17479,1.21287 0.52343,1.74414 0.36526,0.51468 0.81443,0.9287 1.34571,1.24414 0.46486,0.26564 0.9365,0.54003 1.41797,0.82227 0.48146,0.26564 0.94626,0.53124 1.39453,0.79687 0.43166,0.28225 0.73925,0.56346 0.92187,0.8457 0.18263,0.26564 0.27344,0.53124 0.27344,0.79688 0,0.48147 -0.18162,0.90623 -0.54687,1.27148 -0.34865,0.36526 -0.88864,0.54688 -1.61915,0.54688 -0.46486,0 -0.99606,-0.0332 -1.59374,-0.0996 -0.58109,-0.083 -1.14548,-0.20702 -1.69336,-0.37305 -0.18264,-0.0498 -0.29102,-0.0586 -0.32422,-0.0254 -0.0332,0.0332 -0.0576,0.13281 -0.0742,0.29883 l -0.15039,1.61914 c -0.0166,0.13283 0.01,0.22364 0.0762,0.27344 0.083,0.0664 0.15626,0.11719 0.22266,0.15039 0.14942,0.0664 0.35741,0.13282 0.62304,0.19922 0.26564,0.0664 0.56444,0.12403 0.89649,0.17383 0.34865,0.0498 0.70702,0.0918 1.07226,0.125 0.36526,0.0332 0.71288,0.0488 1.04492,0.0488 1.22858,0 2.29098,-0.29879 3.1875,-0.89648 1.11236,-0.81351 1.66797,-1.9179 1.66797,-3.3125 0,-0.7139 -0.14842,-1.31833 -0.44726,-1.81641 -0.29884,-0.51467 -0.74802,-0.98826 -1.34571,-1.41992 -0.21582,-0.16602 -0.54782,-0.3828 -0.99609,-0.64844 -0.43166,-0.26563 -0.90329,-0.52244 -1.41797,-0.77148 -0.48147,-0.24903 -0.87987,-0.52343 -1.19531,-0.82227 -0.31545,-0.29884 -0.47461,-0.58006 -0.47461,-0.8457 0,-0.44826 0.14159,-0.83104 0.42383,-1.14648 0.28224,-0.31545 0.76462,-0.47266 1.44531,-0.47266 0.38186,0 0.69628,0.0156 0.94531,0.0488 0.26564,0.0332 0.51562,0.0664 0.74805,0.0996 0.39845,0.0996 0.75487,0.208 1.07031,0.32422 0.18264,0.0332 0.30665,0.042 0.37305,0.0254 0.0664,-0.0332 0.1084,-0.14159 0.125,-0.32422 l 0.14844,-1.59375 c 0.0166,-0.083 0.0166,-0.14063 0,-0.17383 0,-0.0498 -0.04,-0.10059 -0.12305,-0.15039 -0.13282,-0.083 -0.33202,-0.15626 -0.59766,-0.22266 -0.24903,-0.083 -0.54099,-0.14941 -0.87304,-0.19922 -0.31544,-0.0664 -0.64744,-0.11719 -0.9961,-0.15039 -0.33204,-0.0332 -0.65525,-0.0488 -0.9707,-0.0488 z m 73.96875,0 c -0.76371,0 -1.4365,0.13962 -2.01758,0.42187 -0.58108,0.28224 -1.07909,0.62303 -1.49414,1.02149 l 0.0254,-0.89649 c 0.0332,-0.13282 -0.042,-0.19922 -0.22461,-0.19922 h -1.96679 c -0.26564,0 -0.38281,0.10839 -0.34961,0.32422 0.0332,0.33205 0.0508,0.78806 0.0508,1.36914 0.0166,0.58108 0.0254,1.18747 0.0254,1.81836 v 9.91211 c 0,0.083 0.0244,0.15821 0.0742,0.22461 0.0664,0.083 0.14159,0.12305 0.22461,0.12305 h 2.0664 c 0.19924,0 0.29883,-0.10644 0.29883,-0.32227 v -7.79492 c 0,-1.14556 0.25681,-2.01755 0.77148,-2.61524 0.53128,-0.61428 1.34565,-0.92187 2.44141,-0.92187 0.79691,0 1.37694,0.2656 1.74219,0.79687 0.38185,0.53129 0.57226,1.39448 0.57226,2.58985 v 7.91992 c 0,0.083 0.0264,0.15821 0.0762,0.22461 0.0664,0.083 0.14159,0.12305 0.22461,0.12305 h 2.0664 c 0.19923,0 0.29883,-0.10644 0.29883,-0.32227 v -8.31836 c 0,-1.77645 -0.42281,-3.13081 -1.26953,-4.06054 -0.83012,-0.94634 -2.04289,-1.41797 -3.63672,-1.41797 z m 67.97656,0 c -0.99614,0 -1.85933,0.20603 -2.58984,0.62109 -0.7305,0.41506 -1.33689,0.96383 -1.81836,1.64453 -0.46487,0.68069 -0.81249,1.45308 -1.04492,2.31641 -0.23244,0.86332 -0.34961,1.74214 -0.34961,2.63867 0,2.39074 0.5224,4.2099 1.56836,5.45508 1.06255,1.22857 2.62294,1.84179 4.68164,1.84179 0.6973,0 1.37887,-0.0576 2.04297,-0.17382 0.6807,-0.11622 1.26951,-0.30664 1.76757,-0.57227 0.14944,-0.083 0.24903,-0.16699 0.29883,-0.25 0.0498,-0.083 0.0762,-0.19824 0.0762,-0.34766 v -1.71875 c 0,-0.13281 -0.0176,-0.2412 -0.0508,-0.32421 -0.0332,-0.083 -0.10839,-0.0918 -0.22461,-0.0254 -0.58108,0.34865 -1.22066,0.59862 -1.91796,0.74804 -0.6973,0.13282 -1.31932,0.19922 -1.86719,0.19922 -1.06256,0 -1.90134,-0.34957 -2.51563,-1.04687 -0.61429,-0.7139 -0.96191,-1.62593 -1.04492,-2.73829 h 8.19336 c 0.083,0 0.15821,-0.0332 0.22461,-0.0996 0.083,-0.0664 0.12305,-0.16601 0.12305,-0.29883 v -0.32422 c 0.0166,-0.14942 0.0254,-0.28223 0.0254,-0.39844 0,-0.97954 -0.0996,-1.90034 -0.29883,-2.76367 -0.19923,-0.86332 -0.52244,-1.62009 -0.9707,-2.26758 -0.44827,-0.64749 -1.03024,-1.16111 -1.74414,-1.54297 -0.6973,-0.38186 -1.55171,-0.57226 -2.56446,-0.57226 z m 99.76953,0 c -0.76371,0 -1.43649,0.13962 -2.01757,0.42187 -0.58109,0.28224 -1.07908,0.62303 -1.49415,1.02149 l 0.0234,-0.89649 c 0.0332,-0.13282 -0.04,-0.19922 -0.22265,-0.19922 h -1.96875 c -0.26564,0 -0.38086,0.10839 -0.34766,0.32422 0.0332,0.33205 0.0488,0.78806 0.0488,1.36914 0.0166,0.58108 0.0254,1.18747 0.0254,1.81836 v 9.91211 c 0,0.083 0.0244,0.15821 0.0742,0.22461 0.0664,0.083 0.14159,0.12305 0.22461,0.12305 h 2.0664 c 0.19923,0 0.29883,-0.10644 0.29883,-0.32227 v -7.79492 c 0,-1.14556 0.25876,-2.01755 0.77344,-2.61524 0.53127,-0.61428 1.3437,-0.92187 2.43945,-0.92187 0.79692,0 1.3789,0.2656 1.74414,0.79687 0.38186,0.53129 0.57227,1.39448 0.57227,2.58985 v 7.91992 c 0,0.083 0.0244,0.15821 0.0742,0.22461 0.0664,0.083 0.14159,0.12305 0.22461,0.12305 h 2.0664 c 0.19924,0 0.29883,-0.10644 0.29883,-0.32227 v -8.31836 c 0,-1.77645 -0.42281,-3.13081 -1.26953,-4.06054 -0.83012,-0.94634 -2.04094,-1.41797 -3.63477,-1.41797 z m -341.660152,0.0488 c -0.199229,0 -0.414052,0.0508 -0.646485,0.15039 -0.232433,0.083 -0.464832,0.20703 -0.697265,0.37305 -0.215831,0.14942 -0.423819,0.32421 -0.623047,0.52344 -0.182626,0.19923 -0.333002,0.39842 -0.449219,0.59766 v -1.09571 c 0,-0.083 -0.0068,-0.14258 -0.02344,-0.17578 -0.0166,-0.0332 -0.083,-0.0488 -0.199218,-0.0488 h -2.06836 c -0.116217,0 -0.19824,0.0244 -0.248047,0.0742 -0.04981,0.0332 -0.07422,0.12402 -0.07422,0.27344 0,0.39845 0.0068,0.86325 0.02344,1.39453 0.0166,0.53127 0.02539,1.06442 0.02539,1.5957 v 10.03516 c 0,0.24904 0.09081,0.37305 0.273437,0.37305 h 2.06836 c 0.199228,0 0.298828,-0.11523 0.298828,-0.34766 v -6.47461 c 0,-0.44827 0.02441,-0.92185 0.07422,-1.41992 0.04981,-0.49807 0.149407,-0.96287 0.298829,-1.39453 0.166024,-0.43167 0.398423,-0.80566 0.697265,-1.1211 0.315445,-0.33205 0.722632,-0.54687 1.220703,-0.64648 0.182627,-0.0332 0.397449,-0.0332 0.646485,0 0.249035,0.0166 0.540999,0.0654 0.873047,0.14844 0.149422,0.0332 0.249021,0.009 0.298828,-0.0742 0.04981,-0.083 0.07422,-0.15821 0.07422,-0.22461 v -1.86719 c 0,-0.0664 -0.0088,-0.13282 -0.02539,-0.19922 -0.0166,-0.083 -0.06543,-0.14258 -0.148438,-0.17578 -0.28224,-0.16602 -0.556627,-0.24805 -0.822265,-0.24805 -0.249036,-0.0166 -0.532211,-0.0254 -0.847656,-0.0254 z m 256.382812,0 c -0.64749,0 -1.26267,0.1328 -1.84375,0.39844 -0.58109,0.26564 -1.03709,0.58885 -1.36914,0.97071 l 0.0254,-0.8711 c 0,-0.13282 -0.0752,-0.19922 -0.22461,-0.19922 h -2.11719 c -0.26563,0 -0.38085,0.10839 -0.34765,0.32422 0.0332,0.33205 0.0576,0.78806 0.0742,1.36914 0.0166,0.58108 0.0254,1.18747 0.0254,1.81836 v 9.91211 c 0,0.083 0.0244,0.15821 0.0742,0.22461 0.0664,0.083 0.14159,0.12305 0.2246,0.12305 h 2.06641 c 0.19923,0 0.29883,-0.10644 0.29883,-0.32227 v -8.09375 c 0,-0.99614 0.25681,-1.77732 0.77148,-2.3418 0.53128,-0.56448 1.26168,-0.8457 2.19141,-0.8457 1.46101,0 2.19141,0.87882 2.19141,2.63867 v 8.61719 c 0,0.083 0.0332,0.15821 0.0996,0.22461 0.0664,0.083 0.1416,0.12305 0.22461,0.12305 h 2.06641 c 0.19923,0 0.29883,-0.10644 0.29883,-0.32227 v -7.22266 c 0,-0.58108 0.0664,-1.12106 0.19922,-1.61914 0.14942,-0.49806 0.3574,-0.92087 0.62304,-1.26953 0.26564,-0.36525 0.58885,-0.64843 0.97071,-0.84765 0.39845,-0.21584 0.84763,-0.32227 1.3457,-0.32227 0.6973,0 1.2285,0.24802 1.59375,0.74609 0.36525,0.48147 0.54883,1.11227 0.54883,1.89258 v 8.61719 c 0,0.083 0.0332,0.15821 0.0996,0.22461 0.0664,0.083 0.13964,0.12305 0.22265,0.12305 h 2.06836 c 0.083,0 0.14942,-0.0332 0.19922,-0.0996 0.0664,-0.0664 0.0996,-0.13965 0.0996,-0.22266 v -8.9668 c 0,-1.51082 -0.4316,-2.68159 -1.29492,-3.51171 -0.86333,-0.84672 -2.00091,-1.26954 -3.41211,-1.26954 -0.84673,0 -1.64352,0.1992 -2.39062,0.59766 -0.74711,0.38185 -1.31151,0.97262 -1.69336,1.76953 -0.31545,-0.78031 -0.83103,-1.37108 -1.54493,-1.76953 -0.7139,-0.39846 -1.5019,-0.59766 -2.36523,-0.59766 z m -187.16406,0.39844 c -0.083,0 -0.15821,0.0332 -0.22461,0.0996 -0.0498,0.0498 -0.0742,0.11621 -0.0742,0.19922 v 13.12502 c 0,0.083 0.0244,0.14942 0.0742,0.19922 0.0664,0.0664 0.14159,0.0996 0.22461,0.0996 h 2.09179 c 0.083,0 0.14942,-0.0332 0.19922,-0.0996 0.0664,-0.0498 0.0996,-0.11621 0.0996,-0.19922 v -13.125 c 0,-0.083 -0.0332,-0.14942 -0.0996,-0.19922 -0.0498,-0.0664 -0.11621,-0.0996 -0.19922,-0.0996 z m 21.10937,0 c -0.083,0 -0.15821,0.0332 -0.22461,0.0996 -0.0498,0.0498 -0.0742,0.11621 -0.0742,0.19922 v 13.12502 c 0,0.083 0.0244,0.14942 0.0742,0.19922 0.0664,0.0664 0.1416,0.0996 0.22461,0.0996 h 2.0918 c 0.083,0 0.14942,-0.0332 0.19922,-0.0996 0.0664,-0.0498 0.0996,-0.11621 0.0996,-0.19922 v -13.125 c 0,-0.083 -0.0332,-0.14942 -0.0996,-0.19922 -0.0498,-0.0664 -0.11621,-0.0996 -0.19922,-0.0996 z m 239.22266,0 c -0.083,0 -0.15626,0.0332 -0.22266,0.0996 -0.0498,0.0498 -0.0762,0.11621 -0.0762,0.19922 v 13.12502 c 0,0.083 0.0264,0.14942 0.0762,0.19922 0.0664,0.0664 0.13965,0.0996 0.22266,0.0996 h 2.0918 c 0.083,0 0.14941,-0.0332 0.19921,-0.0996 0.0664,-0.0498 0.0996,-0.11621 0.0996,-0.19922 v -13.125 c 0,-0.083 -0.0332,-0.14942 -0.0996,-0.19922 -0.0498,-0.0664 -0.1162,-0.0996 -0.19921,-0.0996 z m -87.56055,1.94336 c 0.46487,0 0.86327,0.11522 1.19531,0.34766 0.33205,0.23243 0.60644,0.5244 0.82227,0.87304 0.21583,0.33205 0.37304,0.69725 0.47266,1.09571 0.11622,0.39845 0.17382,0.76365 0.17382,1.0957 h -5.70312 c 0.0664,-0.41505 0.1748,-0.83103 0.32422,-1.24609 0.16602,-0.41506 0.37401,-0.78026 0.62304,-1.09571 0.24904,-0.31544 0.54784,-0.57225 0.89649,-0.77148 0.34865,-0.19923 0.74705,-0.29883 1.19531,-0.29883 z m -231.050779,5.08008 v 0.27344 c 0,1.47761 -0.290011,2.56442 -0.871094,3.26172 -0.564481,0.6973 -1.31929,1.04687 -2.265625,1.04687 -0.614288,0 -1.103498,-0.15721 -1.46875,-0.47266 -0.365252,-0.31544 -0.548828,-0.78903 -0.548828,-1.41992 0,-0.89652 0.398398,-1.56931 1.195312,-2.01758 0.796914,-0.44826 2.116121,-0.67187 3.958985,-0.67187 z m 150.374999,0 v 0.27344 c 0,1.47761 -0.29001,2.56442 -0.87109,3.26172 -0.56449,0.6973 -1.31929,1.04687 -2.26563,1.04687 -0.61428,0 -1.10545,-0.15721 -1.4707,-0.47266 -0.36525,-0.31544 -0.54688,-0.78903 -0.54688,-1.41992 0,-0.89652 0.3984,-1.56931 1.19532,-2.01758 0.79691,-0.44826 2.11611,-0.67187 3.95898,-0.67187 z"
       style="font-style:normal;font-variant:normal;font-weight:normal;font-stretch:normal;font-size:medium;line-height:15.56472588px;font-family:NanumGothic;-inkscape-font-specification:NanumGothic;letter-spacing:0px;word-spacing:0px;fill:#000000;fill-opacity:0.78431373;stroke:none;stroke-width:0.62258905;filter:url(#filter4738)"
       inkscape:connector-curvature="0" />
    <path
       style="font-style:normal;font-variant:normal;font-weight:normal;font-stretch:normal;font-size:medium;line-height:15.56472588px;font-family:NanumGothic;-inkscape-font-specification:NanumGothic;letter-spacing:0px;word-spacing:0px;fill:url(#linearGradient4669);fill-opacity:1;stroke:none;stroke-width:0.62258905"
       d="m 59.621094,399.07617 c -0.08301,0 -0.158196,0.0332 -0.22461,0.0996 -0.04981,0.0498 -0.07422,0.11621 -0.07422,0.19922 V 419 c 0,0.083 0.02441,0.14942 0.07422,0.19922 0.06641,0.0664 0.141598,0.0996 0.22461,0.0996 h 2.041015 c 0.199228,0 0.298829,-0.0996 0.298829,-0.29883 v -9.58789 c 0.464866,-1.32819 1.56925,-1.99219 3.3125,-1.99219 0.780311,0 1.344709,0.29001 1.693359,0.8711 0.365252,0.56448 0.548828,1.46966 0.548828,2.71484 V 419 c 0,0.19923 0.108387,0.29883 0.324219,0.29883 h 2.041015 c 0.08301,0 0.149412,-0.0332 0.199219,-0.0996 0.06641,-0.0498 0.09961,-0.11621 0.09961,-0.19922 v -8.01953 c -10e-7,-4.06758 -1.642417,-6.10156 -4.929688,-6.10156 -0.664095,0 -1.279269,0.11717 -1.84375,0.34961 -0.547878,0.21583 -1.030252,0.49705 -1.445312,0.8457 V 399.375 c 0,-0.083 -0.0332,-0.14942 -0.09961,-0.19922 -0.04981,-0.0664 -0.116207,-0.0996 -0.199219,-0.0996 z m 78.896486,0 c -0.083,0 -0.15821,0.0332 -0.22461,0.0996 -0.0498,0.0498 -0.0742,0.11621 -0.0742,0.19922 V 419 c 0,0.083 0.0244,0.14942 0.0742,0.19922 0.0664,0.0664 0.1416,0.0996 0.22461,0.0996 h 2.04101 c 0.19923,0 0.29883,-0.0996 0.29883,-0.29883 v -9.58789 c 0.46487,-1.32819 1.56926,-1.99219 3.3125,-1.99219 0.78032,0 1.34471,0.29001 1.69336,0.8711 0.36525,0.56448 0.54883,1.46966 0.54883,2.71484 V 419 c 0,0.19923 0.10838,0.29883 0.32422,0.29883 h 2.04101 c 0.083,0 0.14942,-0.0332 0.19922,-0.0996 0.0664,-0.0498 0.0996,-0.11621 0.0996,-0.19922 v -8.01953 c 0,-4.06758 -1.64437,-6.10156 -4.93164,-6.10156 -0.66409,0 -1.27731,0.11717 -1.8418,0.34961 -0.54787,0.21583 -1.03025,0.49705 -1.44531,0.8457 V 399.375 c 0,-0.083 -0.0332,-0.14942 -0.0996,-0.19922 -0.0498,-0.0664 -0.11621,-0.0996 -0.19922,-0.0996 z m 75.5039,0 c -0.083,0 -0.15821,0.0332 -0.2246,0.0996 -0.0498,0.0498 -0.0742,0.11621 -0.0742,0.19922 V 419 c 0,0.083 0.0244,0.14942 0.0742,0.19922 0.0664,0.0664 0.14159,0.0996 0.2246,0.0996 h 2.01563 c 0.21583,0 0.32422,-0.0996 0.32422,-0.29883 v -4.38281 l 1.16992,-1.34571 3.98633,5.70313 c 0.083,0.13282 0.15625,0.2168 0.22265,0.25 0.083,0.0498 0.21582,0.0742 0.39844,0.0742 h 2.3418 c 0.28224,0 0.33985,-0.10839 0.17383,-0.32422 l -5.4043,-7.7207 4.85742,-5.4043 c 0.21584,-0.23243 0.16506,-0.34766 -0.15039,-0.34766 h -2.46484 c -0.13282,0 -0.26562,0.0752 -0.39844,0.22461 l -4.73242,5.08008 V 399.375 c 0,-0.083 -0.0332,-0.14942 -0.0996,-0.19922 -0.0498,-0.0664 -0.125,-0.0996 -0.22461,-0.0996 z m -112.55273,0.39844 c -0.48147,0 -0.88865,0.166 -1.2207,0.49805 -0.315445,0.33204 -0.472659,0.73923 -0.472659,1.2207 0,0.46487 0.157214,0.86327 0.472659,1.19531 0.33205,0.31545 0.73923,0.47266 1.2207,0.47266 0.48147,0 0.88866,-0.15721 1.2207,-0.47266 0.33206,-0.33204 0.49805,-0.73044 0.49805,-1.19531 0,-0.48147 -0.16599,-0.88866 -0.49805,-1.2207 -0.33204,-0.33205 -0.73923,-0.49805 -1.2207,-0.49805 z m 21.10937,0 c -0.48146,0 -0.88864,0.166 -1.2207,0.49805 -0.31544,0.33204 -0.47265,0.73923 -0.47265,1.2207 0,0.46487 0.15721,0.86327 0.47265,1.19531 0.33206,0.31545 0.73924,0.47266 1.2207,0.47266 0.48147,0 0.88866,-0.15721 1.22071,-0.47266 0.33205,-0.33204 0.49805,-0.73044 0.49805,-1.19531 -1e-5,-0.48147 -0.166,-0.88866 -0.49805,-1.2207 -0.33205,-0.33205 -0.73924,-0.49805 -1.22071,-0.49805 z m 239.22461,0 c -0.48147,0 -0.88865,0.166 -1.2207,0.49805 -0.31545,0.33204 -0.47265,0.73923 -0.47265,1.2207 0,0.46487 0.1572,0.86327 0.47265,1.19531 0.33205,0.31545 0.73923,0.47266 1.2207,0.47266 0.48147,0 0.88671,-0.15721 1.21875,-0.47266 0.33205,-0.33204 0.49805,-0.73044 0.49805,-1.19531 0,-0.48147 -0.166,-0.88866 -0.49805,-1.2207 -0.33204,-0.33205 -0.73728,-0.49805 -1.21875,-0.49805 z m -343.619136,0.67383 c -1.427805,0 -2.7226,0.23923 -3.884766,0.7207 -1.145564,0.46487 -2.125936,1.12886 -2.939453,1.99219 -0.813517,0.84672 -1.4443143,1.86908 -1.8925781,3.06445 -0.4316618,1.19537 -0.6464844,2.51458 -0.6464844,3.95899 0,1.461 0.2236108,2.789 0.671875,3.98437 0.4482641,1.19537 1.0790615,2.22456 1.8925785,3.08789 0.813516,0.84672 1.793889,1.50388 2.939453,1.96875 1.162166,0.46487 2.448173,0.69727 3.859375,0.69727 0.896528,0 1.684537,-0.0596 2.365234,-0.17578 0.680698,-0.11622 1.262672,-0.24023 1.744141,-0.37305 0.182624,-0.0498 0.291012,-0.11621 0.324219,-0.19922 0.04981,-0.083 0.06543,-0.21581 0.04883,-0.39844 l -0.09961,-1.76758 c 0,-0.11622 -0.0332,-0.19141 -0.09961,-0.2246 -0.06641,-0.0332 -0.207997,-0.009 -0.423828,0.0742 -0.514674,0.18263 -1.079072,0.31543 -1.69336,0.39844 -0.597685,0.0664 -1.328082,0.0996 -2.191406,0.0996 -0.962938,0 -1.841758,-0.18162 -2.638672,-0.54687 -0.780311,-0.36526 -1.461885,-0.86326 -2.042969,-1.49415 -0.56448,-0.64749 -1.004867,-1.40425 -1.320312,-2.26757 -0.315445,-0.87993 -0.472656,-1.83394 -0.472656,-2.86328 0,-1.04596 0.141587,-1.99997 0.423828,-2.86329 0.298843,-0.87992 0.721652,-1.63668 1.269531,-2.26757 0.564481,-0.63089 1.246055,-1.1201 2.042969,-1.46875 0.813517,-0.34865 1.734324,-0.52344 2.763672,-0.52344 1.344792,0 2.639587,0.19236 3.884765,0.57422 0.199229,0.0664 0.340817,0.0996 0.423829,0.0996 0.08301,0 0.125,-0.13281 0.125,-0.39844 l 0.04883,-1.84375 c 0.01661,-0.16603 0.0078,-0.28126 -0.02539,-0.34766 -0.0332,-0.083 -0.139639,-0.14942 -0.322266,-0.19922 -0.581082,-0.18263 -1.229456,-0.3086 -1.943359,-0.375 -0.713902,-0.083 -1.4443,-0.12304 -2.191406,-0.12304 z m 70.138672,0.34765 c -0.132822,0 -0.232422,0.0332 -0.298828,0.0996 -0.06641,0.0498 -0.09961,0.16699 -0.09961,0.34961 v 17.95508 c 0,0.24903 0.124012,0.37305 0.373047,0.37305 h 2.042969 c 0.232433,0 0.347656,-0.12402 0.347656,-0.37305 v -7.99414 h 6.175781 c 0.215831,0 0.324219,-0.0996 0.324219,-0.29883 v -2.01758 c 0,-0.19922 -0.108388,-0.29882 -0.324219,-0.29882 H 90.6875 v -5.1543 h 6.525391 c 0.199228,0 0.298828,-0.11718 0.298828,-0.34961 v -1.99219 c 0,-0.083 -0.0332,-0.14942 -0.09961,-0.19922 -0.04981,-0.0664 -0.116206,-0.0996 -0.199218,-0.0996 z m 82.230464,0 c -0.083,0 -0.1582,0.0332 -0.22461,0.0996 -0.0498,0.0498 -0.0742,0.11622 -0.0742,0.19922 v 18.1543 c 0,0.21583 0.0996,0.32422 0.29882,0.32422 h 2.21485 c 0.21583,0 0.32422,-0.10839 0.32422,-0.32422 v -7.29688 h 2.83984 l 3.81055,7.37305 c 0.083,0.11622 0.15625,0.18262 0.22265,0.19922 0.083,0.0332 0.21581,0.0488 0.39844,0.0488 h 2.0918 c 0.33204,0 0.43165,-0.11523 0.29883,-0.34766 l -4.15821,-7.91992 c 0.92974,-0.43167 1.66014,-1.06246 2.19141,-1.89258 0.53127,-0.84672 0.79687,-1.87592 0.79687,-3.08789 0,-1.89267 -0.53998,-3.28706 -1.61914,-4.18359 -1.07915,-0.89653 -2.53995,-1.34571 -4.38281,-1.34571 z m 82.50782,0 c -0.21584,0 -0.32422,0.10839 -0.32422,0.32422 v 18.12891 c 0,0.21583 0.10838,0.32422 0.32422,0.32422 h 2.26562 c 0.21584,0 0.32422,-0.10839 0.32422,-0.32422 v -18.12891 c 0,-0.21583 -0.10838,-0.32422 -0.32422,-0.32422 z m 80.59375,0 c -0.21584,0 -0.3418,0.0332 -0.375,0.0996 -0.0332,0.0498 -0.0332,0.13379 0,0.25 L 338.53516,419 c 0.0332,0.13282 0.0732,0.20801 0.12304,0.22461 0.0498,0.0332 0.14257,0.0488 0.27539,0.0488 h 2.36524 c 0.14942,0 0.24024,-0.0156 0.27344,-0.0488 0.0498,-0.0166 0.0918,-0.0918 0.125,-0.22461 L 345.83203,404.85352 349.96484,419 c 0.0332,0.13282 0.0752,0.20801 0.125,0.22461 0.0498,0.0332 0.14062,0.0488 0.27344,0.0488 h 2.36719 c 0.13282,0 0.22364,-0.0156 0.27344,-0.0488 0.0498,-0.0166 0.0918,-0.0918 0.125,-0.22461 l 5.2539,-18.1543 c 0.0332,-0.11622 0.0332,-0.2002 0,-0.25 -0.0332,-0.0664 -0.15721,-0.0996 -0.37304,-0.0996 h -2.06836 c -0.11623,0 -0.19825,0.0176 -0.24805,0.0508 -0.0498,0.0166 -0.0918,0.083 -0.125,0.19921 l -4.13281,14.01953 -4.03516,-14.01953 c -0.0332,-0.11622 -0.084,-0.18261 -0.15039,-0.19921 -0.0498,-0.0332 -0.13183,-0.0508 -0.24805,-0.0508 h -2.34179 c -0.11623,0 -0.20704,0.0176 -0.27344,0.0508 -0.0498,0.0166 -0.0918,0.083 -0.125,0.19921 l -4.0332,14.01953 -4.13477,-14.01953 c -0.0332,-0.11622 -0.0752,-0.18261 -0.125,-0.19921 -0.0498,-0.0332 -0.13183,-0.0508 -0.24805,-0.0508 z m -73.29297,1.22071 c -0.083,0 -0.15626,0.0332 -0.22266,0.0996 -0.0664,0.0498 -0.0996,0.1162 -0.0996,0.19921 v 3.48633 h -2.06836 c -0.083,0 -0.15625,0.0332 -0.22265,0.0996 -0.0498,0.0498 -0.0762,0.11621 -0.0762,0.19922 v 1.9668 c 0,0.083 0.0264,0.15821 0.0762,0.22461 0.0664,0.0498 0.13964,0.0742 0.22265,0.0742 h 2.06836 v 6.25195 c 0,0.99614 0.0244,1.78415 0.0742,2.36523 0.0498,0.58108 0.1914,1.08787 0.42383,1.51953 0.19923,0.38186 0.50681,0.71386 0.92187,0.9961 0.41506,0.29884 0.97067,0.44726 1.66797,0.44726 0.58108,0 1.12107,-0.0664 1.61914,-0.19921 0.51468,-0.11622 0.88671,-0.24902 1.11914,-0.39844 0.0996,-0.083 0.1416,-0.18261 0.125,-0.29883 l -0.19921,-1.64258 c -0.0332,-0.13282 -0.0664,-0.20801 -0.0996,-0.22461 -0.0332,-0.0332 -0.0908,-0.0332 -0.17383,0 -0.19923,0.083 -0.43163,0.15821 -0.69727,0.22461 -0.26564,0.0498 -0.50683,0.0899 -0.72265,0.12305 -0.31545,0.0332 -0.59667,0.0176 -0.84571,-0.0488 -0.24904,-0.0664 -0.40821,-0.24998 -0.47461,-0.54883 -0.0498,-0.29884 -0.0742,-1.01166 -0.0742,-2.14062 v -6.42578 h 2.39063 c 0.083,0 0.14942,-0.0244 0.19922,-0.0742 0.0664,-0.0664 0.0996,-0.1416 0.0996,-0.22461 v -1.9668 c 0,-0.083 -0.0332,-0.14942 -0.0996,-0.19922 -0.0498,-0.0664 -0.11621,-0.0996 -0.19922,-0.0996 h -2.39063 v -3.48633 c 0,-0.083 -0.0332,-0.14941 -0.0996,-0.19921 -0.0498,-0.0664 -0.125,-0.0996 -0.22461,-0.0996 z m -87.26953,1.39453 h 2.83984 c 0.84672,0 1.51951,0.24803 2.01758,0.74609 0.51467,0.48148 0.77148,1.19625 0.77148,2.14258 0,1.09575 -0.32321,1.88376 -0.9707,2.36523 -0.64749,0.46487 -1.51947,0.69727 -2.61523,0.69727 h -2.04297 z m -133.263675,1.99219 c -0.896528,0 -1.642549,0.0908 -2.240234,0.27343 -0.581084,0.18263 -1.15427,0.41503 -1.71875,0.69727 -0.19923,0.11623 -0.323241,0.20704 -0.373047,0.27344 -0.03321,0.0498 -0.05078,0.1162 -0.05078,0.19922 0.0166,0.0664 0.02539,0.13281 0.02539,0.19921 v 1.89453 c 0,0.16603 0.04199,0.25684 0.125,0.27344 0.09961,0.0166 0.281237,-0.0586 0.546875,-0.22461 0.531276,-0.33204 1.095674,-0.59765 1.69336,-0.79687 0.614288,-0.19923 1.295861,-0.29883 2.042968,-0.29883 0.431662,0 0.788072,0.084 1.070313,0.25 0.28224,0.14943 0.499015,0.34862 0.648437,0.59766 0.166026,0.24903 0.28125,0.53025 0.347656,0.8457 0.06641,0.31545 0.09961,0.63182 0.09961,0.94727 -1.411202,-10e-6 -2.615186,0.10643 -3.611328,0.32226 -0.996143,0.19923 -1.817351,0.5156 -2.464844,0.94727 -0.63089,0.41506 -1.095688,0.94625 -1.394531,1.59375 -0.298843,0.63088 -0.449219,1.37007 -0.449219,2.21679 0,0.71391 0.117176,1.34471 0.349609,1.89258 0.232434,0.53128 0.546856,0.9785 0.945313,1.34375 0.415059,0.36525 0.906222,0.63964 1.470703,0.82227 0.581083,0.18262 1.211881,0.27343 1.892578,0.27343 0.647493,0 1.287079,-0.14842 1.917969,-0.44726 0.647493,-0.28224 1.178691,-0.71384 1.59375,-1.29492 v 1.12109 c 0,0.0996 0.01562,0.15723 0.04883,0.17383 0.03321,0.0332 0.108393,0.0488 0.224609,0.0488 h 2.017579 c 0.215833,0 0.306644,-0.1328 0.273437,-0.39844 -0.04981,-0.38185 -0.08301,-0.82029 -0.09961,-1.31836 v -1.4707 -5.90235 c 0,-1.74324 -0.407187,-3.02047 -1.220704,-3.83398 -0.796914,-0.81352 -2.034096,-1.2207 -3.710937,-1.2207 z m 150.374995,0 c -0.89652,0 -1.64254,0.0908 -2.24023,0.27343 -0.58108,0.18263 -1.15427,0.41503 -1.71875,0.69727 -0.19924,0.11623 -0.3252,0.20704 -0.375,0.27344 -0.0332,0.0498 -0.0488,0.1162 -0.0488,0.19922 0.0166,0.0664 0.0254,0.13281 0.0254,0.19921 v 1.89453 c 0,0.16603 0.04,0.25684 0.12305,0.27344 0.0996,0.0166 0.28319,-0.0586 0.54883,-0.22461 0.53128,-0.33204 1.09567,-0.59765 1.69336,-0.79687 0.61428,-0.19923 1.29586,-0.29883 2.04297,-0.29883 0.43166,0 0.78807,0.084 1.07031,0.25 0.28224,0.14943 0.49706,0.34862 0.64648,0.59766 0.16604,0.24903 0.28321,0.53025 0.34961,0.8457 0.0664,0.31545 0.0996,0.63182 0.0996,0.94727 -1.4112,-10e-6 -2.61518,0.10643 -3.61133,0.32226 -0.99614,0.19923 -1.81735,0.5156 -2.46484,0.94727 -0.63089,0.41506 -1.09569,0.94625 -1.39453,1.59375 -0.29884,0.63088 -0.44922,1.37007 -0.44922,2.21679 0,0.71391 0.11718,1.34471 0.34961,1.89258 0.23243,0.53128 0.54686,0.9785 0.94531,1.34375 0.41506,0.36525 0.90427,0.63964 1.46875,0.82227 0.58109,0.18262 1.21384,0.27343 1.89453,0.27343 0.6475,0 1.28513,-0.14842 1.91602,-0.44726 0.64749,-0.28224 1.17869,-0.71384 1.59375,-1.29492 v 1.12109 c 0,0.0996 0.0176,0.15723 0.0508,0.17383 0.0332,0.0332 0.1084,0.0488 0.22461,0.0488 h 2.01562 c 0.21583,0 0.3086,-0.1328 0.2754,-0.39844 -0.0498,-0.38185 -0.083,-0.82029 -0.0996,-1.31836 v -1.4707 -5.90235 c 0,-1.74324 -0.40719,-3.02047 -1.22071,-3.83398 -0.79691,-0.81352 -2.0341,-1.2207 -3.71094,-1.2207 z m -137.974604,0.0254 c -0.597686,0 -1.170872,0.082 -1.71875,0.24804 -0.531276,0.14942 -1.00291,0.3994 -1.417969,0.74805 -0.415059,0.33205 -0.747059,0.75486 -0.996094,1.26953 -0.249036,0.49807 -0.375,1.09567 -0.375,1.79297 0,0.63089 0.174788,1.21287 0.523438,1.74414 0.365252,0.51468 0.814426,0.9287 1.345703,1.24414 0.464866,0.26564 0.936499,0.54003 1.417968,0.82227 0.481469,0.26564 0.946268,0.53124 1.394532,0.79687 0.431662,0.28225 0.739249,0.56346 0.921875,0.8457 0.182626,0.26564 0.273437,0.53124 0.273437,0.79688 0,0.48147 -0.181623,0.90623 -0.546875,1.27148 -0.34865,0.36526 -0.888636,0.54688 -1.61914,0.54688 -0.464866,0 -0.996064,-0.0332 -1.59375,-0.0996 -0.581084,-0.083 -1.145482,-0.20702 -1.69336,-0.37305 -0.182624,-0.0498 -0.291012,-0.0586 -0.324219,-0.0254 -0.03321,0.0332 -0.05762,0.13281 -0.07422,0.29883 l -0.148438,1.61914 c -0.0166,0.13283 0.0078,0.22364 0.07422,0.27344 0.08302,0.0664 0.158203,0.11719 0.224609,0.15039 0.149422,0.0664 0.355456,0.13282 0.621094,0.19922 0.265638,0.0664 0.564436,0.12403 0.896484,0.17383 0.34865,0.0498 0.707013,0.0918 1.072266,0.125 0.365252,0.0332 0.712874,0.0488 1.044922,0.0488 1.228575,0 2.290971,-0.29879 3.1875,-0.89648 1.11236,-0.81351 1.669922,-1.9179 1.669922,-3.3125 0,-0.7139 -0.150376,-1.31833 -0.449219,-1.81641 -0.298843,-0.51467 -0.748018,-0.98826 -1.345703,-1.41992 -0.215831,-0.16602 -0.547829,-0.3828 -0.996094,-0.64844 -0.431661,-0.26563 -0.903294,-0.52244 -1.417968,-0.77148 -0.481469,-0.24903 -0.879868,-0.52343 -1.195313,-0.82227 -0.315445,-0.29884 -0.474609,-0.58006 -0.474609,-0.8457 0,-0.44826 0.141587,-0.83104 0.423828,-1.14648 0.28224,-0.31545 0.764615,-0.47266 1.445312,-0.47266 0.381855,0 0.696277,0.0156 0.945313,0.0488 0.265638,0.0332 0.515613,0.0664 0.748047,0.0996 0.398457,0.0996 0.754867,0.208 1.070312,0.32422 0.182629,0.0332 0.30664,0.042 0.373047,0.0254 0.06641,-0.0332 0.1084,-0.14159 0.125,-0.32422 l 0.150391,-1.59375 c 0.0166,-0.083 0.0166,-0.14063 0,-0.17383 0,-0.0498 -0.04199,-0.10059 -0.125,-0.15039 -0.132819,-0.083 -0.332019,-0.15626 -0.597657,-0.22266 -0.249036,-0.083 -0.540999,-0.14941 -0.873047,-0.19922 -0.315445,-0.0664 -0.647443,-0.11719 -0.996093,-0.15039 -0.332048,-0.0332 -0.655258,-0.0488 -0.970703,-0.0488 z m 60.277344,0 c -0.76371,0 -1.4365,0.13962 -2.01758,0.42187 -0.58108,0.28224 -1.07908,0.62303 -1.49414,1.02149 l 0.0254,-0.89649 c 0.0332,-0.13282 -0.042,-0.19922 -0.22461,-0.19922 h -1.9668 c -0.26563,0 -0.3828,0.10839 -0.3496,0.32422 0.0332,0.33205 0.0508,0.78806 0.0508,1.36914 0.0166,0.58108 0.0254,1.18747 0.0254,1.81836 v 9.91211 c 0,0.083 0.0244,0.15821 0.0742,0.22461 0.0664,0.083 0.14159,0.12305 0.22461,0.12305 h 2.0664 c 0.19923,0 0.29883,-0.10644 0.29883,-0.32227 v -7.79492 c 0,-1.14556 0.25681,-2.01755 0.77148,-2.61524 0.53128,-0.61428 1.34565,-0.92187 2.44141,-0.92187 0.79691,0 1.37693,0.2656 1.74219,0.79687 0.38185,0.53129 0.57422,1.39448 0.57422,2.58985 v 7.91992 c 0,0.083 0.0244,0.15821 0.0742,0.22461 0.0664,0.083 0.14159,0.12305 0.22461,0.12305 h 2.0664 c 0.19923,0 0.29883,-0.10644 0.29883,-0.32227 v -8.31836 c 0,-1.77645 -0.42281,-3.13081 -1.26953,-4.06054 -0.83012,-0.94634 -2.04289,-1.41797 -3.63672,-1.41797 z m 18.61914,0 c -0.59768,0 -1.17087,0.082 -1.71875,0.24804 -0.53128,0.14942 -1.00486,0.3994 -1.41992,0.74805 -0.41506,0.33205 -0.74706,0.75486 -0.9961,1.26953 -0.24903,0.49807 -0.37304,1.09567 -0.37304,1.79297 0,0.63089 0.17479,1.21287 0.52343,1.74414 0.36526,0.51468 0.81443,0.9287 1.34571,1.24414 0.46486,0.26564 0.9365,0.54003 1.41797,0.82227 0.48146,0.26564 0.94626,0.53124 1.39453,0.79687 0.43166,0.28225 0.73925,0.56346 0.92187,0.8457 0.18263,0.26564 0.27344,0.53124 0.27344,0.79688 0,0.48147 -0.18162,0.90623 -0.54687,1.27148 -0.34865,0.36526 -0.88864,0.54688 -1.61915,0.54688 -0.46486,0 -0.99606,-0.0332 -1.59374,-0.0996 -0.58109,-0.083 -1.14548,-0.20702 -1.69336,-0.37305 -0.18264,-0.0498 -0.29102,-0.0586 -0.32422,-0.0254 -0.0332,0.0332 -0.0576,0.13281 -0.0742,0.29883 l -0.15039,1.61914 c -0.0166,0.13283 0.01,0.22364 0.0762,0.27344 0.083,0.0664 0.15626,0.11719 0.22266,0.15039 0.14942,0.0664 0.35741,0.13282 0.62304,0.19922 0.26564,0.0664 0.56444,0.12403 0.89649,0.17383 0.34865,0.0498 0.70702,0.0918 1.07226,0.125 0.36526,0.0332 0.71288,0.0488 1.04492,0.0488 1.22858,0 2.29098,-0.29879 3.1875,-0.89648 1.11236,-0.81351 1.66797,-1.9179 1.66797,-3.3125 0,-0.7139 -0.14842,-1.31833 -0.44726,-1.81641 -0.29884,-0.51467 -0.74802,-0.98826 -1.34571,-1.41992 -0.21582,-0.16602 -0.54782,-0.3828 -0.99609,-0.64844 -0.43166,-0.26563 -0.90329,-0.52244 -1.41797,-0.77148 -0.48147,-0.24903 -0.87987,-0.52343 -1.19531,-0.82227 -0.31545,-0.29884 -0.47461,-0.58006 -0.47461,-0.8457 0,-0.44826 0.14159,-0.83104 0.42383,-1.14648 0.28224,-0.31545 0.76462,-0.47266 1.44531,-0.47266 0.38186,0 0.69628,0.0156 0.94531,0.0488 0.26564,0.0332 0.51562,0.0664 0.74805,0.0996 0.39845,0.0996 0.75487,0.208 1.07031,0.32422 0.18264,0.0332 0.30665,0.042 0.37305,0.0254 0.0664,-0.0332 0.1084,-0.14159 0.125,-0.32422 l 0.14844,-1.59375 c 0.0166,-0.083 0.0166,-0.14063 0,-0.17383 0,-0.0498 -0.04,-0.10059 -0.12305,-0.15039 -0.13282,-0.083 -0.33202,-0.15626 -0.59766,-0.22266 -0.24903,-0.083 -0.54099,-0.14941 -0.87304,-0.19922 -0.31544,-0.0664 -0.64744,-0.11719 -0.9961,-0.15039 -0.33204,-0.0332 -0.65525,-0.0488 -0.9707,-0.0488 z m 73.96875,0 c -0.76371,0 -1.4365,0.13962 -2.01758,0.42187 -0.58108,0.28224 -1.07909,0.62303 -1.49414,1.02149 l 0.0254,-0.89649 c 0.0332,-0.13282 -0.042,-0.19922 -0.22461,-0.19922 h -1.96679 c -0.26564,0 -0.38281,0.10839 -0.34961,0.32422 0.0332,0.33205 0.0508,0.78806 0.0508,1.36914 0.0166,0.58108 0.0254,1.18747 0.0254,1.81836 v 9.91211 c 0,0.083 0.0244,0.15821 0.0742,0.22461 0.0664,0.083 0.14159,0.12305 0.22461,0.12305 h 2.0664 c 0.19924,0 0.29883,-0.10644 0.29883,-0.32227 v -7.79492 c 0,-1.14556 0.25681,-2.01755 0.77148,-2.61524 0.53128,-0.61428 1.34565,-0.92187 2.44141,-0.92187 0.79691,0 1.37694,0.2656 1.74219,0.79687 0.38185,0.53129 0.57226,1.39448 0.57226,2.58985 v 7.91992 c 0,0.083 0.0264,0.15821 0.0762,0.22461 0.0664,0.083 0.14159,0.12305 0.22461,0.12305 h 2.0664 c 0.19923,0 0.29883,-0.10644 0.29883,-0.32227 v -8.31836 c 0,-1.77645 -0.42281,-3.13081 -1.26953,-4.06054 -0.83012,-0.94634 -2.04289,-1.41797 -3.63672,-1.41797 z m 67.97656,0 c -0.99614,0 -1.85933,0.20603 -2.58984,0.62109 -0.7305,0.41506 -1.33689,0.96383 -1.81836,1.64453 -0.46487,0.68069 -0.81249,1.45308 -1.04492,2.31641 -0.23244,0.86332 -0.34961,1.74214 -0.34961,2.63867 0,2.39074 0.5224,4.2099 1.56836,5.45508 1.06255,1.22857 2.62294,1.84179 4.68164,1.84179 0.6973,0 1.37887,-0.0576 2.04297,-0.17382 0.6807,-0.11622 1.26951,-0.30664 1.76757,-0.57227 0.14944,-0.083 0.24903,-0.16699 0.29883,-0.25 0.0498,-0.083 0.0762,-0.19824 0.0762,-0.34766 v -1.71875 c 0,-0.13281 -0.0176,-0.2412 -0.0508,-0.32421 -0.0332,-0.083 -0.10839,-0.0918 -0.22461,-0.0254 -0.58108,0.34865 -1.22066,0.59862 -1.91796,0.74804 -0.6973,0.13282 -1.31932,0.19922 -1.86719,0.19922 -1.06256,0 -1.90134,-0.34957 -2.51563,-1.04687 -0.61429,-0.7139 -0.96191,-1.62593 -1.04492,-2.73829 h 8.19336 c 0.083,0 0.15821,-0.0332 0.22461,-0.0996 0.083,-0.0664 0.12305,-0.16601 0.12305,-0.29883 v -0.32422 c 0.0166,-0.14942 0.0254,-0.28223 0.0254,-0.39844 0,-0.97954 -0.0996,-1.90034 -0.29883,-2.76367 -0.19923,-0.86332 -0.52244,-1.62009 -0.9707,-2.26758 -0.44827,-0.64749 -1.03024,-1.16111 -1.74414,-1.54297 -0.6973,-0.38186 -1.55171,-0.57226 -2.56446,-0.57226 z m 99.76953,0 c -0.76371,0 -1.43649,0.13962 -2.01757,0.42187 -0.58109,0.28224 -1.07908,0.62303 -1.49415,1.02149 l 0.0234,-0.89649 c 0.0332,-0.13282 -0.04,-0.19922 -0.22265,-0.19922 h -1.96875 c -0.26564,0 -0.38086,0.10839 -0.34766,0.32422 0.0332,0.33205 0.0488,0.78806 0.0488,1.36914 0.0166,0.58108 0.0254,1.18747 0.0254,1.81836 v 9.91211 c 0,0.083 0.0244,0.15821 0.0742,0.22461 0.0664,0.083 0.14159,0.12305 0.22461,0.12305 h 2.0664 c 0.19923,0 0.29883,-0.10644 0.29883,-0.32227 v -7.79492 c 0,-1.14556 0.25876,-2.01755 0.77344,-2.61524 0.53127,-0.61428 1.3437,-0.92187 2.43945,-0.92187 0.79692,0 1.3789,0.2656 1.74414,0.79687 0.38186,0.53129 0.57227,1.39448 0.57227,2.58985 v 7.91992 c 0,0.083 0.0244,0.15821 0.0742,0.22461 0.0664,0.083 0.14159,0.12305 0.22461,0.12305 h 2.0664 c 0.19924,0 0.29883,-0.10644 0.29883,-0.32227 v -8.31836 c 0,-1.77645 -0.42281,-3.13081 -1.26953,-4.06054 -0.83012,-0.94634 -2.04094,-1.41797 -3.63477,-1.41797 z m -341.660152,0.0488 c -0.199229,0 -0.414052,0.0508 -0.646485,0.15039 -0.232433,0.083 -0.464832,0.20703 -0.697265,0.37305 -0.215831,0.14942 -0.423819,0.32421 -0.623047,0.52344 -0.182626,0.19923 -0.333002,0.39842 -0.449219,0.59766 v -1.09571 c 0,-0.083 -0.0068,-0.14258 -0.02344,-0.17578 -0.0166,-0.0332 -0.083,-0.0488 -0.199218,-0.0488 h -2.06836 c -0.116217,0 -0.19824,0.0244 -0.248047,0.0742 -0.04981,0.0332 -0.07422,0.12402 -0.07422,0.27344 0,0.39845 0.0068,0.86325 0.02344,1.39453 0.0166,0.53127 0.02539,1.06442 0.02539,1.5957 V 418.875 c 0,0.24904 0.09081,0.37305 0.273437,0.37305 h 2.06836 c 0.199228,0 0.298828,-0.11523 0.298828,-0.34766 v -6.47461 c 0,-0.44827 0.02441,-0.92185 0.07422,-1.41992 0.04981,-0.49807 0.149407,-0.96287 0.298829,-1.39453 0.166024,-0.43167 0.398423,-0.80566 0.697265,-1.1211 0.315445,-0.33205 0.722632,-0.54687 1.220703,-0.64648 0.182627,-0.0332 0.397449,-0.0332 0.646485,0 0.249035,0.0166 0.540999,0.0654 0.873047,0.14844 0.149422,0.0332 0.249021,0.009 0.298828,-0.0742 0.04981,-0.083 0.07422,-0.15821 0.07422,-0.22461 v -1.86719 c 0,-0.0664 -0.0088,-0.13282 -0.02539,-0.19922 -0.0166,-0.083 -0.06543,-0.14258 -0.148438,-0.17578 -0.28224,-0.16602 -0.556627,-0.24805 -0.822265,-0.24805 -0.249036,-0.0166 -0.532211,-0.0254 -0.847656,-0.0254 z m 256.382812,0 c -0.64749,0 -1.26267,0.1328 -1.84375,0.39844 -0.58109,0.26564 -1.03709,0.58885 -1.36914,0.97071 l 0.0254,-0.8711 c 0,-0.13282 -0.0752,-0.19922 -0.22461,-0.19922 h -2.11719 c -0.26563,0 -0.38085,0.10839 -0.34765,0.32422 0.0332,0.33205 0.0576,0.78806 0.0742,1.36914 0.0166,0.58108 0.0254,1.18747 0.0254,1.81836 v 9.91211 c 0,0.083 0.0244,0.15821 0.0742,0.22461 0.0664,0.083 0.14159,0.12305 0.2246,0.12305 h 2.06641 c 0.19923,0 0.29883,-0.10644 0.29883,-0.32227 v -8.09375 c 0,-0.99614 0.25681,-1.77732 0.77148,-2.3418 0.53128,-0.56448 1.26168,-0.8457 2.19141,-0.8457 1.46101,0 2.19141,0.87882 2.19141,2.63867 v 8.61719 c 0,0.083 0.0332,0.15821 0.0996,0.22461 0.0664,0.083 0.1416,0.12305 0.22461,0.12305 h 2.06641 c 0.19923,0 0.29883,-0.10644 0.29883,-0.32227 v -7.22266 c 0,-0.58108 0.0664,-1.12106 0.19922,-1.61914 0.14942,-0.49806 0.3574,-0.92087 0.62304,-1.26953 0.26564,-0.36525 0.58885,-0.64843 0.97071,-0.84765 0.39845,-0.21584 0.84763,-0.32227 1.3457,-0.32227 0.6973,0 1.2285,0.24802 1.59375,0.74609 0.36525,0.48147 0.54883,1.11227 0.54883,1.89258 v 8.61719 c 0,0.083 0.0332,0.15821 0.0996,0.22461 0.0664,0.083 0.13964,0.12305 0.22265,0.12305 h 2.06836 c 0.083,0 0.14942,-0.0332 0.19922,-0.0996 0.0664,-0.0664 0.0996,-0.13965 0.0996,-0.22266 v -8.9668 c 0,-1.51082 -0.4316,-2.68159 -1.29492,-3.51171 -0.86333,-0.84672 -2.00091,-1.26954 -3.41211,-1.26954 -0.84673,0 -1.64352,0.1992 -2.39062,0.59766 -0.74711,0.38185 -1.31151,0.97262 -1.69336,1.76953 -0.31545,-0.78031 -0.83103,-1.37108 -1.54493,-1.76953 -0.7139,-0.39846 -1.5019,-0.59766 -2.36523,-0.59766 z m -187.16406,0.39844 c -0.083,0 -0.15821,0.0332 -0.22461,0.0996 -0.0498,0.0498 -0.0742,0.11621 -0.0742,0.19922 V 419 c 0,0.083 0.0244,0.14942 0.0742,0.19922 0.0664,0.0664 0.14159,0.0996 0.22461,0.0996 h 2.09179 c 0.083,0 0.14942,-0.0332 0.19922,-0.0996 0.0664,-0.0498 0.0996,-0.11621 0.0996,-0.19922 v -13.125 c 0,-0.083 -0.0332,-0.14942 -0.0996,-0.19922 -0.0498,-0.0664 -0.11621,-0.0996 -0.19922,-0.0996 z m 21.10937,0 c -0.083,0 -0.15821,0.0332 -0.22461,0.0996 -0.0498,0.0498 -0.0742,0.11621 -0.0742,0.19922 V 419 c 0,0.083 0.0244,0.14942 0.0742,0.19922 0.0664,0.0664 0.1416,0.0996 0.22461,0.0996 h 2.0918 c 0.083,0 0.14942,-0.0332 0.19922,-0.0996 0.0664,-0.0498 0.0996,-0.11621 0.0996,-0.19922 v -13.125 c 0,-0.083 -0.0332,-0.14942 -0.0996,-0.19922 -0.0498,-0.0664 -0.11621,-0.0996 -0.19922,-0.0996 z m 239.22266,0 c -0.083,0 -0.15626,0.0332 -0.22266,0.0996 -0.0498,0.0498 -0.0762,0.11621 -0.0762,0.19922 V 419 c 0,0.083 0.0264,0.14942 0.0762,0.19922 0.0664,0.0664 0.13965,0.0996 0.22266,0.0996 h 2.0918 c 0.083,0 0.14941,-0.0332 0.19921,-0.0996 0.0664,-0.0498 0.0996,-0.11621 0.0996,-0.19922 v -13.125 c 0,-0.083 -0.0332,-0.14942 -0.0996,-0.19922 -0.0498,-0.0664 -0.1162,-0.0996 -0.19921,-0.0996 z m -87.56055,1.94336 c 0.46487,0 0.86327,0.11522 1.19531,0.34766 0.33205,0.23243 0.60644,0.5244 0.82227,0.87304 0.21583,0.33205 0.37304,0.69725 0.47266,1.09571 0.11622,0.39845 0.17382,0.76365 0.17382,1.0957 h -5.70312 c 0.0664,-0.41505 0.1748,-0.83103 0.32422,-1.24609 0.16602,-0.41506 0.37401,-0.78026 0.62304,-1.09571 0.24904,-0.31544 0.54784,-0.57225 0.89649,-0.77148 0.34865,-0.19923 0.74705,-0.29883 1.19531,-0.29883 z M 42.119141,412.5996 v 0.27344 c 0,1.47761 -0.290011,2.56442 -0.871094,3.26172 -0.564481,0.6973 -1.31929,1.04687 -2.265625,1.04687 -0.614288,0 -1.103498,-0.15721 -1.46875,-0.47266 -0.365252,-0.31544 -0.548828,-0.78903 -0.548828,-1.41992 0,-0.89652 0.398398,-1.56931 1.195312,-2.01758 0.796914,-0.44826 2.116121,-0.67187 3.958985,-0.67187 z m 150.374999,0 v 0.27344 c 0,1.47761 -0.29001,2.56442 -0.87109,3.26172 -0.56449,0.6973 -1.31929,1.04687 -2.26563,1.04687 -0.61428,0 -1.10545,-0.15721 -1.4707,-0.47266 -0.36525,-0.31544 -0.54688,-0.78903 -0.54688,-1.41992 0,-0.89652 0.3984,-1.56931 1.19532,-2.01758 0.79691,-0.44826 2.11611,-0.67187 3.95898,-0.67187 z"
       id="path4658"
       inkscape:connector-curvature="0" />
    <image
       sodipodi:absref="D:\Projects\Git\Syroot.KartRider.Translator\res\patch_templates\DataRaw\stage\common\mission\normal_col@zz.back.png"
       y="384"
       x="0"
       id="image4750"
       xlink:href="file:///D:/Projects/Git/Syroot.KartRider.Translator/res/patch_templates/DataRaw/stage/common/mission/normal_col@zz.back.png"
       style="image-rendering:optimizeSpeed"
       preserveAspectRatio="none"
       height="128"
       width="79" />
    <image
       sodipodi:absref="D:\Projects\Git\Syroot.KartRider.Translator\res\patch_templates\DataRaw\stage\common\mission\normal_finish@zz.back.png"
       y="384"
       x="79"
       id="image4761"
       xlink:href="file:///D:/Projects/Git/Syroot.KartRider.Translator/res/patch_templates/DataRaw/stage/common/mission/normal_finish@zz.back.png"
       style="image-rendering:optimizeSpeed"
       preserveAspectRatio="none"
       height="128"
       width="79" />
    <image
       sodipodi:absref="D:\Projects\Git\Syroot.KartRider.Translator\res\patch_templates\DataRaw\stage\common\mission\normal_rank@zz.back.png"
       y="384"
       x="158"
       id="image4772"
       xlink:href="file:///D:/Projects/Git/Syroot.KartRider.Translator/res/patch_templates/DataRaw/stage/common/mission/normal_rank@zz.back.png"
       style="image-rendering:optimizeSpeed"
       preserveAspectRatio="none"
       height="128"
       width="79" />
    <image
       sodipodi:absref="D:\Projects\Git\Syroot.KartRider.Translator\res\patch_templates\DataRaw\stage\common\mission\normal_use@zz.back.png"
       y="384"
       x="237"
       id="image4783"
       xlink:href="file:///D:/Projects/Git/Syroot.KartRider.Translator/res/patch_templates/DataRaw/stage/common/mission/normal_use@zz.back.png"
       style="image-rendering:optimizeSpeed"
       preserveAspectRatio="none"
       height="128"
       width="79" />
    <image
       sodipodi:absref="D:\Projects\Git\Syroot.KartRider.Translator\res\patch_templates\DataRaw\stage\common\mission\normal_win@zz.back.png"
       y="384"
       x="316"
       id="image4794"
       xlink:href="file:///D:/Projects/Git/Syroot.KartRider.Translator/res/patch_templates/DataRaw/stage/common/mission/normal_win@zz.back.png"
       style="image-rendering:optimizeSpeed"
       preserveAspectRatio="none"
       height="128"
       width="79" />
  </g>
</svg>
